<svg width="45" height="50" viewBox="0 0 45 50" fill="none" xmlns="http://www.w3.org/2000/svg">
<path d="M6.25081 16.372C6.07931 16.5877 6.03243 16.6185 6.02841 16.656C5.66131 19.2606 5.6814 19.286 8.23641 19.286C11.0339 19.286 13.8315 19.286 16.629 19.286C18.5865 19.286 18.5905 19.286 18.5543 21.285C18.5476 21.632 18.5034 21.9791 18.4726 22.389C18.0773 22.4225 17.733 22.4775 17.3887 22.4775C12.1929 22.4775 6.99709 22.4587 1.80131 22.5016C0.821912 22.5096 0.472228 22.2443 0.501704 21.2301C0.570034 18.9658 0.535201 16.6989 0.520463 14.4333C0.511085 12.9595 1.11668 11.901 2.39619 11.1614C8.51376 7.63953 14.6224 4.10378 20.7221 0.554178C21.9949 -0.185396 23.2329 -0.184056 24.5044 0.554178C30.6474 4.11807 36.8199 7.63507 42.9174 11.2726C43.6824 11.7295 44.5251 12.8121 44.5492 13.6294C44.7006 18.5867 44.6243 23.564 44.6243 28.6553H38.5723V27.2418C38.5723 24.7538 38.6085 22.2644 38.5469 19.7777C38.4973 17.7319 37.3049 16.443 35.3501 16.4014C32.1989 16.3331 29.0436 16.3411 25.8924 16.4014C24.1641 16.4363 22.8631 17.7211 22.8176 19.4736C22.7407 22.4918 22.7407 25.5121 22.8176 28.5347C22.8645 30.4533 24.2404 31.6672 26.2341 31.6846C29.2902 31.7128 32.3476 31.6927 35.326 31.6927C35.46 31.8668 35.5471 31.9311 35.5551 32.0035C35.8874 34.6831 35.8552 34.7153 33.2279 34.7153H27.3662C25.5025 34.7153 25.5012 34.7153 25.5481 36.6312C25.5481 36.8925 25.591 37.151 25.6312 37.6133H30.1369C31.7353 37.6133 33.335 37.6361 34.9334 37.6052C37.2902 37.561 38.508 36.3297 38.5723 33.961C38.5911 33.2616 38.5723 32.5595 38.5723 31.773H44.5868C44.5868 33.4652 44.8172 35.1413 44.4957 36.7035C44.3148 37.5784 43.3555 38.4909 42.5127 38.9986C38.1771 41.6086 33.7665 44.0899 29.3826 46.6195C27.7668 47.5573 26.1429 48.4671 24.5419 49.4223C23.2784 50.1753 22.0512 50.1981 20.7703 49.4558C14.6635 45.9161 8.55083 42.3879 2.43237 38.8714C1.15152 38.1358 0.516443 37.0814 0.519122 35.6129C0.519122 32.5917 0.543243 29.5704 0.507069 26.5505C0.49635 25.6997 0.756269 25.3447 1.64188 25.3741C3.00983 25.425 4.38047 25.3875 5.94536 25.3875C5.94536 26.4473 5.92526 27.3651 5.94536 28.2815C5.99895 30.3997 7.26372 31.6699 9.38062 31.6819C13.0222 31.7034 16.6638 31.6605 20.3054 31.7087C21.262 31.7208 21.5112 31.3832 21.4965 30.4761C21.4536 26.9672 21.4965 23.4569 21.471 19.9479C21.4509 17.6622 20.1902 16.3961 17.9071 16.38C14.011 16.3505 10.1068 16.372 6.25081 16.372Z" fill="#8C8C8C"/>
<path d="M30.7457 28.7754C29.4153 28.7754 28.0848 28.7607 26.7557 28.7754C26.0336 28.7875 25.7161 28.5074 25.7228 27.7531C25.7469 25.27 25.7469 22.7869 25.7228 20.3038C25.7161 19.5602 26.0282 19.2695 26.7531 19.2735C29.3666 19.2896 31.9815 19.2896 34.5977 19.2735C35.3118 19.2735 35.6494 19.5548 35.644 20.2984C35.6253 22.7807 35.6253 25.2638 35.644 27.7478C35.6507 28.4981 35.3118 28.7781 34.6003 28.77C33.3168 28.7647 32.0306 28.7754 30.7457 28.7754Z" fill="#8C8C8C"/>
<path d="M9.06397 25.4609H18.436V28.781H11.5909C8.61649 28.781 8.61648 28.781 8.93401 25.7477C8.9689 25.6485 9.01238 25.5525 9.06397 25.4609V25.4609Z" fill="#8C8C8C"/>
</svg>
