<svg width="58" height="50" viewBox="0 0 58 50" fill="none" xmlns="http://www.w3.org/2000/svg">
<path fill-rule="evenodd" clip-rule="evenodd" d="M2.83594 30.4631L2.97639 38.3581L15.0753 48.0595L30.0258 45.1523L41.2003 47.8635L55.0174 38.3581L55.1546 31.1295L28.9969 9.19531L2.83594 30.4631ZM35.0547 27.4188L38.0566 25.1257L42.2278 26.2919L38.3081 28.5457L35.0547 27.4188ZM19.9336 25.1257L22.9355 27.4188L19.6854 28.5457L15.7656 26.2919L19.9336 25.1257ZM24.6055 34.6344C24.6055 33.465 25.9414 33.0763 28.9988 33.0763C32.0562 33.0763 33.3922 33.4519 33.3922 34.6344V38.6357L28.9988 41.1378L24.6055 38.6357V34.6344Z" fill="#FAFAFA"/>
<path d="M37.1398 45.8483L32.4165 42.2422L28.9965 43.8068L25.5733 42.2422L20.85 45.8483L20.543 47.8637L22.3526 48.0597H35.6405L37.4468 47.8637L37.1398 45.8483Z" fill="#D2D2D2"/>
<path d="M19.9294 25.1259L19.6517 20.8109H28.9937L13.6349 12.1973L9.61719 15.6956L11.8678 22.4572L19.9294 25.1259Z" fill="#ADADAD"/>
<path d="M38.0572 25.1259L38.3349 20.8109H28.9961L44.3517 12.1973L48.3726 15.6956L46.1188 22.4572L38.0572 25.1259Z" fill="#ADADAD"/>
<path d="M41.9209 4.01758H16.067L13.6367 12.1968L28.9955 23.3745L44.3511 12.1968L41.9209 4.01758Z" fill="#8C8C8C"/>
<path fill-rule="evenodd" clip-rule="evenodd" d="M15.779 26.2993L15.7511 26.2949L13.3438 26.8339C13.3438 26.8339 15.9308 30.672 20.6834 30.1722L22.9373 27.4186L22.9351 27.4182L22.9355 27.4185L19.6854 28.5455L15.779 26.2993Z" fill="#ADADAD"/>
<path d="M5.86652 30.4629L5.52026 31.4951C5.52026 31.4951 2.97573 38.5245 2.97573 38.3546C2.97573 38.1848 0 34.2977 0 34.2977L5.86652 30.4629Z" fill="#ADADAD"/>
<path d="M9.61968 15.6953L19.9318 25.1255L15.7639 26.2917L0 34.2977L2.83527 20.8106L9.61968 15.6953Z" fill="#8C8C8C"/>
<path fill-rule="evenodd" clip-rule="evenodd" d="M2.97641 4.68695L2.83594 20.8101L8.95085 16.1997L5.87109 7.1041L13.6416 12.1963L19.0734 7.46669L16.0683 4.02059C16.0683 4.02059 6.17754 0.349106 5.39359 0.0159282C4.60964 -0.317249 2.97641 4.68695 2.97641 4.68695Z" fill="#8C8C8C"/>
<path fill-rule="evenodd" clip-rule="evenodd" d="M6.46744 8.86549L5.87109 7.10428L11.3318 10.6828C12.6623 10.0463 15.0381 8.75446 15.0687 7.63344C15.1112 6.07534 14.9021 5.90875 11.456 4.40945C8.00989 2.91016 4.94922 1.96289 4.94922 1.96289V8.02214L6.46744 8.86549Z" fill="#ADADAD"/>
<path d="M5.86493 7.10467L4.86537 4.6875L1.30171 5.79482C1.15799 9.35852 2.83366 20.8205 2.83366 20.8205L8.94516 16.2148L5.86493 7.10467Z" fill="#ADADAD"/>
<path d="M5.0243 0.0479217C3.98557 0.466027 1.87872 3.17064 1.39202 5.01945C1.30851 5.46839 1.27563 5.92529 1.29401 6.38156C1.9473 7.15244 3.28981 7.61954 5.86703 7.10344C5.86703 7.10344 6.60525 0.766538 5.54039 0.0773185L5.38687 0.0152553C5.26504 0.00531571 5.1424 0.0163663 5.0243 0.0479217V0.0479217Z" fill="#E0E0E0"/>
<path d="M2.97656 38.3504C2.97656 38.3504 10.2607 33.3463 15.7647 35.7928C21.2687 38.2394 20.8505 45.8633 20.8505 45.8633L14.7063 47.8787L2.97656 38.3504Z" fill="#E0E0E0"/>
<path d="M28.9988 41.1369L24.6055 38.6348V42.6362L25.9937 43.8055H28.9988H32.0007L33.3889 42.6362V38.6348L28.9988 41.1369Z" fill="#ADADAD"/>
<path d="M2.97656 38.3516L13.8865 46.4687L20.8505 45.8448L22.3531 48.0529C22.3531 48.0529 9.99615 56.4281 2.97656 38.3516Z" fill="#D2D2D2"/>
<path d="M24.6047 38.6348L25.9929 43.8055L20.8516 45.8471L24.6047 38.6348Z" fill="#E0E0E0"/>
<path fill-rule="evenodd" clip-rule="evenodd" d="M35.0548 27.4186L38.3081 28.5455L42.215 26.299L42.2409 26.2949L44.645 26.8339C44.645 26.8339 42.0612 30.672 37.3085 30.1722L35.0547 27.4186L35.0548 27.4186Z" fill="#ADADAD"/>
<path d="M52.1211 30.4629L52.4673 31.4951C52.4673 31.4951 55.0119 38.5245 55.0119 38.3546C55.0119 38.1848 57.9876 34.2977 57.9876 34.2977L52.1211 30.4629Z" fill="#ADADAD"/>
<path d="M48.374 15.6953L38.0586 25.1255L42.2298 26.2917L57.9904 34.2977L55.1552 20.8106L48.374 15.6953Z" fill="#8C8C8C"/>
<path fill-rule="evenodd" clip-rule="evenodd" d="M55.015 4.68695L55.1522 20.8101L48.3711 15.6949L44.3501 12.1965L38.918 7.46669L41.9199 4.02059C41.9199 4.02059 51.8074 0.349106 52.5946 0.0159282C53.3818 -0.317249 55.015 4.68695 55.015 4.68695ZM44.3555 12.1965L52.1263 7.1041L49.0493 16.2011L48.3765 15.6948L44.3555 12.1965Z" fill="#8C8C8C"/>
<path d="M52.1232 7.10467L53.1228 4.6875L56.6865 5.79482C56.8269 9.35852 55.1512 20.8205 55.1512 20.8205L49.043 16.2148L52.1232 7.10467Z" fill="#ADADAD"/>
<path d="M55.0242 38.3504C55.0242 38.3504 47.74 33.3463 42.2361 35.7928C36.7321 38.2394 37.1437 45.8633 37.1437 45.8633L43.2846 47.8787L55.0242 38.3504Z" fill="#E0E0E0"/>
<path d="M55.0198 38.3516L44.1066 46.4687L37.1393 45.8644L35.6367 48.0725C35.6367 48.0725 47.9937 56.4281 55.0198 38.3516Z" fill="#D2D2D2"/>
<path d="M33.3843 38.6348L31.9961 43.8055L37.1375 45.8471L33.3843 38.6348Z" fill="#E0E0E0"/>
<path fill-rule="evenodd" clip-rule="evenodd" d="M51.5314 8.86328L52.1263 7.10428L46.6645 10.6835C45.3343 10.0472 42.9567 8.75488 42.9262 7.63344C42.8837 6.07534 43.0928 5.90875 46.5389 4.40945C49.985 2.91016 53.0456 1.96289 53.0456 1.96289V8.02214L51.5314 8.86328Z" fill="#ADADAD"/>
<path d="M52.9669 0.0479856C54.0056 0.466091 56.1125 3.17071 56.5992 5.01952C56.6827 5.46846 56.7156 5.92535 56.6972 6.38162C56.0439 7.1525 54.7014 7.6196 52.1242 7.1035C52.1242 7.1035 51.386 0.766602 52.4508 0.0773824L52.6011 0.0153192C52.724 0.00526243 52.8477 0.0163119 52.9669 0.0479856V0.0479856Z" fill="#E0E0E0"/>
</svg>
