<svg width="46" height="50" viewBox="0 0 46 50" fill="none" xmlns="http://www.w3.org/2000/svg">
<path d="M23.0008 0V50L3.34963 38.9899L0 8.32538L23.0008 0Z" fill="#ADADAD"/>
<path d="M23 0V50L42.6499 38.9899L45.9995 8.32538L23 0Z" fill="#8C8C8C"/>
<path d="M19.5166 23.4648C19.3551 23.5905 10.207 29.2714 10.207 29.2714L26.4745 37.2211L35.88 31.3882L19.5166 23.4648Z" fill="#D2D2D2"/>
<path d="M19.5166 17.3398C19.3551 17.4655 10.207 23.1451 10.207 23.1451L26.4745 31.0949L35.88 25.262L19.5166 17.3398Z" fill="#E0E0E0"/>
<path d="M19.5166 11.2441C19.3551 11.3698 10.207 17.0494 10.207 17.0494L26.4745 24.9992L35.88 19.1663L19.5166 11.2441Z" fill="#FAFAFA"/>
</svg>
