<svg width="50" height="50" viewBox="0 0 50 50" fill="none" xmlns="http://www.w3.org/2000/svg">
<path d="M36.128 14.0695C37.206 12.9929 37.206 11.3291 36.128 10.3504L32.3064 6.53353C31.3264 5.55484 29.5626 3.7932 27.1128 1.34647C25.9369 0.172044 24.075 0.269913 22.8991 1.34647L1.34082 22.8777C0.164916 24.0521 0.164916 25.9116 1.34082 27.086L22.8991 48.6172C24.075 49.7917 25.9369 49.7917 27.1128 48.6172L36.128 39.6133C37.206 38.5367 37.206 36.8729 36.128 35.8942C35.0501 34.8177 33.3843 34.8177 32.4044 35.8942L25.5449 42.7451C25.2509 43.0387 24.8589 43.0387 24.565 42.7451L7.31835 25.4223C7.02437 25.1287 7.02437 24.7372 7.31835 24.4436L24.565 7.21862C24.565 7.21862 24.663 7.21862 24.663 7.12075C24.9569 6.92501 25.3489 6.92501 25.6429 7.21862L32.5023 14.0695C33.3843 15.0481 35.1481 15.0481 36.128 14.0695ZM19.2734 25.0308C19.2734 28.2605 21.9192 30.8051 25.0549 30.8051C28.1907 30.8051 30.8365 28.1626 30.8365 25.0308C30.8365 21.8011 28.1907 19.2565 25.0549 19.2565C21.9192 19.2565 19.2734 21.8011 19.2734 25.0308ZM48.6711 22.8777L41.9096 16.2226C40.8317 15.146 39.1658 15.146 38.1859 16.2226C37.108 17.2991 37.108 18.9629 38.1859 19.9416L42.6935 24.4436C42.9875 24.7372 42.9875 25.1287 42.6935 25.4223L38.1859 29.9242C37.108 31.0008 37.108 32.6646 38.1859 33.6433C39.2638 34.7198 40.9297 34.7198 41.9096 33.6433L48.5731 26.9882C49.847 25.9116 49.847 24.0521 48.6711 22.8777Z" fill="#ADADAD"/>
</svg>
