<svg width="50" height="50" viewBox="0 0 50 50" fill="none" xmlns="http://www.w3.org/2000/svg">
<path fill-rule="evenodd" clip-rule="evenodd" d="M25 50C38.8071 50 50 38.8071 50 25C50 11.1929 38.8071 0 25 0C11.1929 0 0 11.1929 0 25C0 38.8071 11.1929 50 25 50ZM40.965 31.4613C42.3368 31.6797 43.5208 32.3178 43.862 33.8294C44.0143 34.3757 44.0041 34.9546 43.8326 35.4952C43.6611 36.0357 43.3358 36.5146 42.8964 36.8732C42.8356 36.7057 42.7828 36.5535 42.7339 36.4125C42.6374 36.134 42.5558 35.8985 42.4562 35.6721C42.3048 35.2704 42.0608 34.9101 41.7441 34.6205C41.4274 34.3308 41.0468 34.1199 40.6333 34.0049C40.2197 33.8898 39.7849 33.874 39.3641 33.9585C38.9433 34.043 38.5483 34.2256 38.2113 34.4914C37.9106 34.7034 37.6383 34.9511 37.3637 35.2009C37.2581 35.2968 37.1523 35.3931 37.0443 35.4878C27.4694 43.65 12.9672 38.5691 10.3773 26.2473C8.94412 19.4228 12.4178 13.1954 18.1846 10.9159C26.1659 7.76641 35.0686 13.639 35.4098 22.2311C35.5601 24.7409 34.9932 27.2416 33.7753 29.4412C33.5438 29.8331 33.3463 30.2441 33.185 30.6697C32.9416 31.3142 32.9509 32.0268 33.211 32.6648C33.4711 33.3027 33.9628 33.8187 34.5875 34.1092C35.2033 34.422 35.9163 34.4843 36.5771 34.2834C37.2379 34.0824 37.7954 33.6336 38.1328 33.031C38.4743 32.4349 38.5932 31.737 38.4682 31.0614C38.3432 30.3859 37.9825 29.7767 37.4504 29.3423C37.031 29.0581 36.5971 28.7962 36.1503 28.5575C38.7061 27.0254 40.6238 28.2231 40.965 31.4613Z" fill="#8C8C8C"/>
</svg>
