<svg width="50" height="50" viewBox="0 0 50 50" fill="none" xmlns="http://www.w3.org/2000/svg">
<path fill-rule="evenodd" clip-rule="evenodd" d="M25 0C38.8182 0 50 11.1818 50 25C50 38.8182 38.8182 50 25 50C11.1818 50 0 38.8182 0 25C0 11.1818 11.1818 0 25 0ZM38.2718 36.0001C37.3627 38.8183 35.999 40.9092 34.0899 42.4546C32.1808 44.0001 29.6354 44.8183 26.4536 45.091L25.8172 40.9092C27.9081 40.6364 29.4536 40.1819 30.4536 39.4546C30.9081 39.091 31.5445 38.2728 31.5445 38.2728L23.999 14.091H30.2717L34.6354 32.1819L39.2717 14.091H45.3627L38.2718 36.0001ZM20.2725 14.0908C19.1816 13.6363 17.8179 13.4544 16.3634 13.4544C14.2725 13.4544 12.4543 13.909 10.9088 14.8181C9.36339 15.8181 8.09067 17.1817 7.27248 18.9999C6.4543 20.7272 5.99976 22.8181 5.99976 25.0908C5.99976 27.4544 6.4543 29.4544 7.27248 31.1817C8.09067 32.909 9.36339 34.2726 10.9088 35.1817C12.5452 36.0908 14.3634 36.5453 16.5452 36.5453C19.2725 36.5453 21.6361 35.7272 23.727 33.9999L21.1816 30.3635C20.2725 30.909 19.5452 31.2726 18.9088 31.5453C18.2725 31.8181 17.5452 31.909 16.8179 31.909C15.2725 31.909 14.1816 31.4544 13.3634 30.3635C12.5452 29.3635 12.1816 27.6363 12.1816 25.1817C12.1816 20.3635 13.727 17.9999 16.8179 17.9999C17.5452 17.9999 18.3634 18.0908 18.9998 18.3635C19.6361 18.6363 20.3634 18.9999 21.0907 19.5453L23.6361 16.0908C22.5452 15.1817 21.4543 14.5453 20.2725 14.0908Z" fill="#ADADAD"/>
</svg>
