<svg width="53" height="50" viewBox="0 0 53 50" fill="none" xmlns="http://www.w3.org/2000/svg">
<path d="M52.7244 35.3878C52.3604 43.4623 45.6861 49.9185 37.5316 49.9185H36.429L28.2857 41.8891C28.9555 40.9436 29.5783 39.9641 30.1326 38.9427H37.5316C39.8715 38.9427 41.7758 37.0379 41.7758 34.6948C41.7758 32.3527 39.8715 30.4468 37.5316 30.4468H33.1531C33.4867 28.6818 33.6691 26.8618 33.6691 24.9999C33.6691 23.1095 33.4834 21.2637 33.1378 19.4704H35.8576L52.6763 36.0567C52.6963 35.8344 52.7122 35.6122 52.7244 35.3878V35.3878ZM4.42408 0H0V10.9758H4.42408C12.1509 10.9758 18.438 17.2665 18.438 24.9999C18.438 27.1037 17.9692 29.101 17.136 30.894L25.207 38.8536C27.857 34.8851 29.4062 30.1207 29.4062 24.9999C29.4062 11.215 18.199 0 4.42408 0Z" fill="#ADADAD"/>
<path d="M37.5319 0H19.6172C23.9928 2.67376 27.6161 6.46505 30.0848 10.9758H37.5319C39.8719 10.9758 41.7761 12.8806 41.7761 15.2237C41.7761 17.5662 39.8719 19.471 37.5319 19.471H35.8585L52.6773 36.0571C52.7169 35.6073 52.7416 35.1545 52.7416 34.6948C52.7416 30.9946 51.415 27.6004 49.2124 24.9586C51.415 22.3181 52.7416 18.9232 52.7416 15.2237C52.7416 6.82972 45.9193 0 37.5319 0Z" fill="#8C8C8C"/>
<path d="M36.429 49.919H19.7448C23.1032 47.8432 26.0066 45.1028 28.2857 41.8897L36.429 49.919ZM25.207 38.8541L17.1366 30.8945C14.9069 35.6903 10.0482 39.0258 4.42408 39.0258H0V50.0005H4.42408C13.0818 50.0005 20.7235 45.5684 25.207 38.8541Z" fill="#D2D2D2"/>
</svg>
