<svg width="65" height="50" viewBox="0 0 65 50" fill="none" xmlns="http://www.w3.org/2000/svg">
<path d="M16.7928 22.6601L29.4002 2.06852C29.5263 1.86277 29.5953 1.62701 29.6003 1.38556C29.6052 1.14411 29.5459 0.905714 29.4283 0.694943C29.3107 0.484173 29.1392 0.308659 28.9314 0.186502C28.7236 0.0643441 28.4871 -3.38197e-05 28.2462 1.33285e-08H17.7732C16.7606 9.295e-05 15.7649 0.261084 14.8819 0.757933C13.9988 1.25478 13.2579 1.97082 12.7302 2.83734L7.27344 11.8L16.7898 27.3399C16.3596 26.6355 16.1322 25.8255 16.1327 24.9996C16.1332 24.1736 16.3617 23.3639 16.7928 22.6601V22.6601Z" fill="#8C8C8C"/>
<path d="M0.649364 27.3288L12.6635 47.1516C13.1898 48.0202 13.9301 48.7385 14.8132 49.2375C15.6964 49.7365 16.6927 49.9993 17.7064 50.0008H28.2462C28.4871 50.0008 28.7236 49.9365 28.9314 49.8143C29.1392 49.6921 29.3107 49.5166 29.4283 49.3059C29.5459 49.0951 29.6052 48.8567 29.6003 48.6152C29.5953 48.3738 29.5262 48.138 29.4001 47.9323L16.7927 27.3407L7.27641 11.8008L0.653818 22.6728C0.22698 23.3737 0.000786903 24.1789 2.04949e-06 25.0002C-0.000782804 25.8214 0.223866 26.6271 0.649364 27.3288Z" fill="#ADADAD"/>
<path d="M47.8039 27.34L35.1965 47.9315C35.0704 48.1373 35.0013 48.3731 34.9964 48.6145C34.9914 48.8559 35.0508 49.0943 35.1684 49.3051C35.286 49.5159 35.4575 49.6914 35.6653 49.8136C35.8731 49.9357 36.1096 50.0001 36.3505 50.0001H46.822C47.8349 50.0002 48.8307 49.7392 49.7139 49.2421C50.597 48.7449 51.3378 48.0283 51.865 47.1612L57.3217 38.2001L47.8054 22.6602C48.2365 23.3642 48.4645 24.1742 48.4643 25.0003C48.464 25.8264 48.2354 26.6362 47.8039 27.34V27.34Z" fill="#E0E0E0"/>
<path d="M63.9458 22.672L51.9317 2.84924C51.4048 1.97943 50.6634 1.26034 49.7788 0.761296C48.8942 0.262248 47.8964 6.02886e-05 46.8813 1.33285e-08H36.3505C36.1096 -3.38197e-05 35.8731 0.0643441 35.6653 0.186502C35.4575 0.308659 35.286 0.484173 35.1684 0.694943C35.0508 0.905714 34.9914 1.14411 34.9964 1.38556C35.0013 1.62701 35.0704 1.86277 35.1965 2.06852L47.8039 22.6601L57.3202 38.2L63.9414 27.325C64.3676 26.6244 64.5935 25.8198 64.5943 24.9991C64.5951 24.1785 64.3707 23.3734 63.9458 22.672V22.672Z" fill="#ADADAD"/>
</svg>
