<svg viewBox="0 0 49 48" fill="none" xmlns="http://www.w3.org/2000/svg">
<path d="M22.1739 19.8752H25.8978L26.823 18.6035V8.64453H21.2495V18.6046L22.1739 19.8752V19.8752ZM19.7739 24.317L20.9243 20.7818L19.9989 19.5107L10.5111 16.4331L8.78906 21.7247L18.2779 24.8026L19.7739 24.3172V24.317ZM23.2637 27.9692L20.2515 25.7838L18.7541 26.2696L12.8907 34.3271L17.3996 37.5972L23.2637 29.5397V27.9692V27.9692ZM27.821 25.7833L24.808 27.9686L24.8088 29.54L30.6724 37.5972L35.1815 34.327L29.3168 26.2689L27.8212 25.7835L27.821 25.7833ZM27.147 20.781L28.2979 24.3168L29.795 24.8021L39.2829 21.7247L37.5603 16.4327L28.0721 19.5108L27.147 20.781" fill="#ADB0B5"/>
<path d="M24.0394 0C10.7843 0 0 10.7649 0 23.9961C0 37.2323 10.7843 48 24.0397 48C37.2937 48 48.0768 37.2323 48.0768 23.9961C48.0768 10.7647 37.2937 0 24.0397 0H24.0394ZM24.0394 4.85887C34.625 4.85887 43.209 13.4258 43.209 23.9959C43.209 34.5699 34.625 43.1406 24.0394 43.1406C13.4505 43.1406 4.86747 34.5699 4.86747 23.9959C4.86747 13.4258 13.4505 4.85887 24.0395 4.85887H24.0394Z" fill="#ADB0B5"/>
<path d="M38.5966 29.3294L31.3844 26.9897L31.8613 25.5231L39.0735 27.8627L38.5966 29.3294ZM29.3984 17.7699L28.1483 16.8636L32.6055 10.7385L33.8554 11.6449L29.3982 17.7699H29.3984ZM18.7511 17.7141L14.2945 11.5889L15.5444 10.6826L20.001 16.8075L18.7511 17.7141ZM9.44583 29.2379L8.96875 27.7713L16.1802 25.4326L16.6575 26.8993L9.44583 29.2379V29.2379ZM23.2162 39.296H24.7608V31.7249H23.2164V39.296H23.2162Z" fill="#ADB0B5"/>
</svg>
