<svg width="46" height="50" viewBox="0 0 46 50" fill="none" xmlns="http://www.w3.org/2000/svg">
<path fill-rule="evenodd" clip-rule="evenodd" d="M38.2871 19.964C40.8573 19.964 42.941 22.0477 42.941 24.6179C42.9426 25.7087 42.5593 26.7651 41.8586 27.6011C43.1646 29.4124 43.7326 31.6462 43.3428 33.8897C42.9487 36.1607 41.5592 38.1836 39.4517 39.4043C37.6015 40.4758 35.4513 40.7859 33.2881 41.0978C32.1702 41.2591 31.0488 41.4208 29.9635 41.6884C27.0712 42.4016 24.228 43.8139 21.4411 45.1982C15.7591 48.0205 10.3112 50.7265 5.15892 47.1555C1.86148 44.8699 1.23133 40.8229 1.86361 37.0105C2.2545 34.6535 3.28532 32.536 4.26172 30.5302C4.60315 29.8289 4.93791 29.1412 5.23634 28.4617C4.03751 27.6199 3.25341 26.2276 3.25341 24.6514C3.25341 22.081 5.33697 19.9975 7.90735 19.9975C10.4777 19.9975 12.5615 22.081 12.5615 24.6514C12.5615 26.8565 11.0273 28.702 8.96871 29.1824C8.85593 29.4566 8.73872 29.7319 8.62255 30.0047C8.6013 30.0546 8.58008 30.1044 8.55894 30.1541C7.34824 33.0005 8.69004 36.2469 11.5316 37.7067C13.9183 36.8569 16.125 35.4776 18.0532 33.6587C19.4712 32.3208 20.7201 30.7722 21.7126 29.0531C19.8334 28.4547 18.4718 26.6957 18.4718 24.6181C18.4718 22.0476 20.5555 19.9642 23.1258 19.9642C23.2201 19.9644 23.3145 19.9675 23.4087 19.9734L17.0253 1.13672H44.19L37.7978 19.9899C37.9587 19.9729 38.1216 19.964 38.2871 19.964ZM25.9141 20.0752L30.4881 10.2917L35.5704 20.5834L33.7916 24.0139L28.074 24.3951L25.9141 20.0752Z" fill="#8C8C8C"/>
<path d="M42.2207 33.6951C41.8785 35.6669 40.6607 37.389 38.8799 38.4206C37.2198 39.382 35.2304 39.669 33.124 39.9727C31.9957 40.1353 30.829 40.3038 29.6891 40.5848C26.6753 41.3279 23.7561 42.778 20.9333 44.1802C15.2837 46.9864 10.4048 49.4095 5.80433 46.221C2.43443 43.8856 2.58998 39.5643 2.98256 37.1964C3.34644 35.0025 4.3302 32.982 5.28136 31.0282C5.44341 30.6961 5.60415 30.3634 5.76359 30.03C6.24306 30.2217 6.74616 30.3479 7.25933 30.4053C6.29099 33.601 7.81383 37.0758 11.0099 38.7177L11.4475 38.9425L11.9106 38.7776C14.4374 37.8776 16.7658 36.4338 18.8309 34.4852C20.1658 33.2258 21.3136 31.8324 22.257 30.3436C22.5438 30.3869 22.8334 30.4086 23.1235 30.4086C26.057 30.4086 28.4862 28.2156 28.8621 25.3832C30.0629 25.3393 31.3383 25.3389 32.546 25.3828C32.9215 28.2156 35.3511 30.4088 38.2846 30.4088C39.5113 30.4088 40.649 30.0244 41.5863 29.3714C42.237 30.7034 42.4799 32.2022 42.2207 33.6951V33.6951ZM7.90525 21.1341C9.84477 21.1341 11.4225 22.712 11.4225 24.6515C11.4225 25.3481 11.2181 25.9978 10.8672 26.5448C10.2825 27.4566 9.28868 28.0817 8.14689 28.1596C8.06699 28.1649 7.98639 28.1688 7.90525 28.1688C7.47298 28.1688 7.05896 28.09 6.67613 27.9468C5.90511 27.6569 5.25944 27.107 4.85051 26.3919C4.54686 25.8622 4.38732 25.2621 4.38778 24.6515C4.38778 22.712 5.96572 21.1341 7.90525 21.1341V21.1341ZM19.6064 24.618C19.6064 22.8559 20.909 21.3927 22.6016 21.1397C22.772 21.114 22.9463 21.1008 23.1236 21.1008C24.2513 21.1008 25.2552 21.6349 25.899 22.4626C26.0603 22.6689 26.198 22.8927 26.3097 23.1296C26.5283 23.5953 26.6414 24.1036 26.6409 24.618C26.6409 24.8992 26.6069 25.1726 26.5444 25.4347C26.2016 26.8697 24.978 27.9667 23.4785 28.1176C23.3619 28.1293 23.2436 28.1353 23.1236 28.1353C22.4471 28.1359 21.7849 27.9401 21.2174 27.5718C20.2491 26.9445 19.6064 25.8551 19.6064 24.618V24.618ZM34.2865 20.4353C33.5211 21.1659 32.9703 22.0921 32.6937 23.1134C31.368 23.0646 30.0409 23.0646 28.7151 23.1134C28.4175 22.0094 27.8006 21.0354 26.9706 20.2956L30.6103 12.9361L34.2865 20.4353ZM18.6084 2.27365H42.6022L36.9351 18.9876C36.6912 19.046 36.4515 19.1203 36.2174 19.2099L30.6192 7.78981L25.0051 19.1417C24.7603 19.0577 24.5102 18.9903 24.2564 18.94L18.6084 2.27365ZM41.8019 24.6182C41.8019 24.9708 41.7493 25.3113 41.6524 25.6328C41.4225 26.3898 40.9451 27.0477 40.2966 27.5009C39.7073 27.9145 39.0046 28.1362 38.2846 28.1355C36.6606 28.1355 35.2907 27.0288 34.8878 25.5301C34.8078 25.2327 34.7673 24.9261 34.7674 24.6182C34.7674 24.1374 34.8644 23.6789 35.0398 23.2612C35.1303 23.0475 35.2418 22.8432 35.3725 22.6514C36.0055 21.7171 37.0736 21.1009 38.2846 21.1009C38.3957 21.1009 38.5052 21.1066 38.6138 21.1169C40.3996 21.2832 41.8021 22.7896 41.8021 24.6182H41.8019ZM44.0754 24.6182C44.0754 21.7911 42.0384 19.4323 39.3556 18.9284L45.7733 0H15.4377L21.8653 18.9667C19.2756 19.543 17.3331 21.8572 17.3331 24.618C17.3331 26.6911 18.4286 28.512 20.0705 29.5352C19.2807 30.7119 18.3443 31.8192 17.2711 32.8318C15.5689 34.4374 13.6728 35.6552 11.6286 36.4565C9.56947 35.163 8.69909 32.7237 9.60295 30.5989L9.67382 30.4324L9.80668 30.1199C12.0683 29.331 13.6958 27.1785 13.6958 24.6515C13.6958 21.4584 11.0982 18.8608 7.90525 18.8608C4.71233 18.8608 2.11431 21.4584 2.11431 24.6515C2.11431 26.2631 2.77688 27.7226 3.84302 28.7735C3.64417 29.1948 3.44233 29.6146 3.23749 30.0331C2.26259 32.0351 1.15783 34.3043 0.739918 36.8244C-0.0898898 41.8291 1.24872 45.8299 4.50931 48.0895C6.48781 49.4607 8.49713 50 10.519 50C14.3262 50 18.1776 48.0872 21.9445 46.2161C24.6573 44.8688 27.4626 43.4754 30.2335 42.792C31.2646 42.5377 32.3254 42.3847 33.4486 42.2228C35.676 41.9014 37.9791 41.5692 40.0192 40.3878C42.3841 39.018 44.0028 36.7202 44.4606 34.0841C44.8535 31.8209 44.3807 29.5542 43.2274 27.6317C43.7831 26.7248 44.0766 25.6817 44.0754 24.618V24.6182Z" fill="#D2D2D2"/>
</svg>
