<svg width="46" height="50" viewBox="0 0 46 50" fill="none" xmlns="http://www.w3.org/2000/svg">
<path d="M10.616 7.74255C10.1915 7.48874 10.2063 6.86546 10.6419 6.63237L22.8879 0.0744489C23.0828 -0.029905 23.3173 -0.0242285 23.5061 0.0894177L45.6915 13.3833C45.7408 13.413 45.7853 13.449 45.8248 13.4899C45.9358 13.6069 46 13.7643 46 13.9308V39.6777C46 39.9022 45.8828 40.1102 45.6915 40.225L34.0379 47.2213C33.6171 47.4742 33.0827 47.1682 33.0827 46.674V21.5646C33.0827 21.3399 32.9655 21.1318 32.7742 21.017L10.616 7.74255Z" fill="#8C8C8C"/>
<path d="M0.322408 21.1571C0.0546087 20.9967 -0.0391825 20.6877 0.0397996 20.4233C0.084227 20.2742 0.184189 20.1392 0.337217 20.053L10.7221 14.2172C10.9208 14.1056 11.1627 14.1102 11.3577 14.2291L27.5206 24.1223C27.6243 24.1858 27.7058 24.2766 27.7588 24.3826C27.802 24.4695 27.8255 24.5665 27.8255 24.6668V43.2241C27.8255 43.336 27.7959 43.4439 27.7428 43.5382C27.691 43.6306 27.6157 43.7099 27.5231 43.7672L17.5911 49.9051C17.1703 50.1653 16.6285 49.8598 16.6285 49.362V31.2845C16.6285 31.0598 16.5113 30.8516 16.32 30.7369L0.322408 21.1571Z" fill="#8C8C8C"/>
<path d="M0.313769 40.5349C-0.10459 40.7807 -0.10459 41.3893 0.313769 41.6352L9.82741 47.2353C10.2482 47.4833 10.7777 47.177 10.7777 46.6852V35.4885C10.7777 34.9968 10.2482 34.6905 9.82741 34.9383L0.313769 40.5349Z" fill="#8C8C8C"/>
</svg>
