<svg width="47" height="51" viewBox="0 0 47 51" fill="none" xmlns="http://www.w3.org/2000/svg">
<path d="M23.5004 0V50.2737L3.84957 39.2034L0.5 8.37096L23.5004 0Z" fill="#ADADAD"/>
<path d="M23.5039 0V50.2737L43.1534 39.2034L46.503 8.37096L23.5039 0Z" fill="#8C8C8C"/>
<path fill-rule="evenodd" clip-rule="evenodd" d="M29.785 22.5889C30.0521 22.4848 30.306 22.3692 30.5467 22.242C31.6188 21.6756 32.4293 20.9464 32.9781 20.0545C33.527 19.1506 33.8014 18.1563 33.8014 17.0716C33.8014 15.8423 33.578 14.7817 33.1313 13.8898C32.6973 12.9979 32.0528 12.2628 31.1976 11.6842C30.3552 11.0937 29.3277 10.6598 28.1152 10.3826C26.9154 10.1054 25.5497 9.9668 24.0181 9.9668H13.5352V36.2889H24.803C26.8325 36.2889 28.5683 35.9997 30.0106 35.4212C31.4529 34.8306 32.5569 33.9689 33.3228 32.8359C34.1013 31.703 34.4906 30.2989 34.4906 28.6237C34.4906 27.539 34.2481 26.5266 33.7631 25.5865C33.2781 24.6464 32.5378 23.8811 31.5422 23.2906C31.0308 22.9832 30.4451 22.7494 29.785 22.5889ZM18.0851 24.3933H25.0136C26.1241 24.3933 27.0239 24.5681 27.7131 24.9176C28.4024 25.2551 28.9065 25.7432 29.2256 26.382C29.5447 27.0087 29.7043 27.7499 29.7043 28.6056C29.7043 29.4252 29.5192 30.1423 29.1491 30.7569C28.7917 31.3595 28.2492 31.8356 27.5217 32.1851C26.7942 32.5226 25.888 32.6913 24.803 32.6913H18.0851V24.3933ZM18.0851 21.085V13.5825H24.0181C25.154 13.5825 26.0858 13.709 26.8133 13.9621C27.5536 14.2152 28.1024 14.619 28.4598 15.1734C28.8172 15.7278 28.9959 16.4449 28.9959 17.3247C28.9959 18.1201 28.8044 18.8011 28.4215 19.3676C28.0386 19.922 27.477 20.3498 26.7367 20.6511C26.0092 20.9404 25.1221 21.085 24.0755 21.085H18.0851Z" fill="#E0E0E0"/>
</svg>
