<svg width="47" height="50" viewBox="0 0 47 50" fill="none" xmlns="http://www.w3.org/2000/svg">
<path fill-rule="evenodd" clip-rule="evenodd" d="M23.5502 0L0.5 8.10818L3.79987 39.0976L23.5502 50V0Z" fill="#8C8C8C"/>
<path fill-rule="evenodd" clip-rule="evenodd" d="M23.5469 0L46.597 8.10818L43.2971 39.0976L23.5469 50V0Z" fill="#ADADAD"/>
<path fill-rule="evenodd" clip-rule="evenodd" d="M35.0399 17.1095L35.0357 17.0962C36.0882 18.2834 36.6288 19.6929 36.6575 21.325C36.6863 22.957 36.1457 24.6786 35.0233 26.4845C35.8621 25.8236 36.8309 24.3972 37.9263 22.2217C38.3995 26.6306 36.6413 29.9796 32.6352 32.2732C33.9142 32.1537 35.6124 31.3003 37.7185 29.7102C35.471 35.1937 31.3384 38.0869 25.3209 38.3897C19.5053 38.3882 15.7379 34.8466 15.7408 34.8488C13.3498 32.963 11.7048 30.5862 10.8112 27.729C9.38114 26.1465 9.36692 25.9767 9.21937 25.3444C9.07188 24.712 9.31259 24.5353 9.73146 23.9166C10.0108 23.5041 10.0765 22.9106 9.93308 22.1469C9.57706 21.6466 9.37206 20.863 9.31804 19.7961C9.31804 19.2806 9.65751 18.7366 10.3367 18.1642C11.0157 17.5918 11.4324 17.1516 11.5833 16.8486C11.6984 16.6833 11.7429 15.967 11.7167 14.6996C11.7096 13.4548 12.3917 12.7775 13.7629 12.6678C15.8196 12.5032 16.9795 10.9358 17.6256 10.2229C18.0564 9.74766 18.694 9.51666 19.4981 9.51221C20.6302 9.45844 21.6602 9.8982 22.5475 10.8057C24.7576 10.6899 27.0215 11.2939 29.3154 12.6024C32.5752 14.5647 34.3542 16.6898 34.6525 18.9669C34.3031 21.9636 30.3306 21.8853 22.7527 18.7311C18.7871 19.8694 16.8374 22.3361 16.9022 26.1312C16.8995 29.6138 18.5628 32.1444 21.8805 33.7205C20.2634 32.1117 19.5748 30.7594 19.8067 29.6395C23.1702 33.6761 27.0014 35.1848 31.2937 34.166C29.4013 34.233 27.9023 33.6159 26.7742 32.3055C29.6755 32.2341 32.4144 30.8692 34.9935 28.1971C33.5047 29.3977 31.9468 29.8523 30.2972 29.5664C34.7647 26.0071 36.3457 21.8548 35.0399 17.1095V17.1095ZM26.9314 16.562C27.2936 16.562 27.5871 16.2645 27.5871 15.8974C27.5871 15.5304 27.2936 15.2329 26.9314 15.2329C26.5692 15.2329 26.2757 15.5304 26.2757 15.8974C26.2757 16.2645 26.5692 16.562 26.9314 16.562Z" fill="#E0E0E0"/>
</svg>
