<svg width="100" height="28" viewBox="0 0 100 28" fill="none" xmlns="http://www.w3.org/2000/svg">
<path d="M21.9784 27.312C21.9784 20.3282 21.9784 11.0523 21.9644 5.71639C21.9547 5.01969 21.8829 4.32524 21.7496 3.64133C21.5824 2.57706 21.0114 1.61818 20.1554 0.964058C19.3035 0.326212 18.2645 -0.0119074 17.2004 0.00238851H5.15149C3.91475 -0.0111583 2.70631 0.372562 1.70394 1.0971C0.387481 2.07511 0.00233415 3.32389 0 5.67671C0 11.7782 0 20.7693 0 27.312H2.13809C2.13809 20.6573 2.13809 11.3627 2.13809 5.85411C2.13809 3.05312 3.05775 2.11946 5.82139 2.11946C9.40042 2.10702 12.9795 2.10702 16.5585 2.11946C19.0374 2.11946 20.0807 3.15349 20.097 5.66971C20.1251 9.82917 20.097 13.9886 20.097 18.1458C20.097 19.7586 20.097 23.8574 20.097 27.319L21.9784 27.312Z" fill="#8C8C8C"/>
<path d="M16.7588 3.87722C16.1029 3.80953 15.4424 3.75118 14.7841 3.74884C11.9061 3.73717 9.02811 3.72317 6.14776 3.74884C4.28044 3.76752 3.83229 4.197 3.61054 6.04331C3.56388 6.46882 3.54283 6.89674 3.54751 7.32476C3.54751 12.5719 3.54751 21.2456 3.54751 27.3051H5.6786C5.6786 21.2853 5.6786 12.8544 5.6786 7.43213C5.6786 5.94061 5.97735 5.63951 7.4432 5.62783C9.6163 5.6115 11.7894 5.62783 13.9648 5.62783C16.3924 5.62783 16.397 5.62783 16.397 8.12071C16.397 13.1041 16.397 21.346 16.397 27.3098H18.2643C18.2643 20.3773 18.2783 11.6429 18.283 5.60216C18.2667 4.61014 17.7765 3.98226 16.7588 3.87722Z" fill="#8C8C8C"/>
<path d="M47.1988 22.439V19.7828C47.1988 17.7598 47.1988 15.7408 47.1988 13.7257C47.1973 13.0241 46.9234 12.3505 46.4348 11.8471C45.9461 11.3437 45.2811 11.0498 44.5799 11.0274C42.8222 10.976 39.2113 10.9807 36.7605 10.9924V13.0137H42.5305C44.6312 13.0137 44.972 12.9787 44.972 15.3479C44.972 17.8057 44.972 20.2963 44.972 22.7962C44.972 24.5328 45.0234 25.2517 43.6999 25.2447C39.3117 25.219 34.9212 25.2447 30.533 25.212C28.4322 25.1933 27.3888 24.1453 27.3772 22.0096C27.3445 16.3734 27.3445 10.7379 27.3772 5.10329C27.3841 4.27418 27.7086 3.47927 28.284 2.88223C28.8593 2.28518 29.6416 1.93144 30.4699 1.89383C30.9998 1.86816 31.5296 1.87749 32.0618 1.87749C36.2633 1.87749 42.7032 1.87749 47.2105 1.87749V0.021843H29.9868C29.0552 0.0102974 28.1415 0.277745 27.3632 0.789779C25.4655 2.07356 25.2461 4.24899 25.2461 6.91693C25.2461 11.9214 25.2461 16.0808 25.2461 20.7188C25.2461 23.8255 25.7596 26.2507 28.7473 27.3314H44.7946C45.4278 27.3345 46.0364 27.0868 46.4874 26.6424C46.9383 26.198 47.195 25.593 47.2011 24.9599V24.9179C47.1988 24.0893 47.2011 23.263 47.1988 22.439Z" fill="#8C8C8C"/>
<path d="M32.2697 5.60262C35.2247 5.64464 38.1798 5.6213 41.1395 5.6213C42.4023 5.6213 45.2709 5.6353 47.2083 5.6213V3.49255C44.608 3.49255 40.5373 3.49255 38.4272 3.49255C36.3661 3.49255 34.3074 3.47855 32.2464 3.49255C29.1186 3.51589 28.7895 3.84501 28.7802 6.99378C28.7802 11.0762 28.7802 15.1633 28.7802 19.2411C28.7552 20.1767 28.7997 21.113 28.9132 22.0421C29.0719 23.1158 29.6461 23.5733 30.7058 23.6363C34.3522 23.8615 38.009 23.8615 41.6553 23.6363C42.9088 23.5546 43.4526 23.0994 43.4853 21.8577C43.5304 19.9903 43.5304 18.123 43.4853 16.2557C43.4596 15.0209 42.9135 14.4841 41.6787 14.4514C40.759 14.4257 38.4109 14.4304 36.777 14.4327V16.3981C37.867 16.3981 39.4519 16.4097 39.8977 16.3981C40.8944 16.3981 41.4243 16.8229 41.3799 17.8803C41.3472 18.6949 41.3496 19.5142 41.3799 20.3288C41.4266 21.4142 40.9131 21.909 39.8534 21.9043C37.3263 21.8934 34.7991 21.8934 32.272 21.9043C31.1703 21.9043 30.6381 21.4072 30.6522 20.2704C30.6755 15.9149 30.6685 11.5617 30.6522 7.19918C30.6381 6.07179 31.1213 5.58629 32.2697 5.60262Z" fill="#8C8C8C"/>
<path d="M58.37 13.8102H58.3559C58.3559 11.287 58.4073 8.75913 58.3396 6.23591C58.2906 4.44795 57.7421 3.88775 56.0521 3.78739C54.9854 3.72436 52.4809 3.7337 50.6836 3.74304V5.62903H54.7987C55.751 5.62903 56.2482 6.08419 56.2482 7.04586C56.2482 11.4761 56.2482 15.9047 56.2482 20.3319C56.2482 21.3939 55.6647 21.8841 54.6377 21.8934C53.9911 21.8934 52.0981 21.8934 50.6859 21.8934V23.7771C52.3198 23.7771 54.563 23.7771 55.4383 23.7771C57.7724 23.7607 58.3419 23.2309 58.3746 20.9037C58.3886 18.5509 58.37 16.1817 58.37 13.8102Z" fill="#8C8C8C"/>
<path d="M74.6623 25.3073C72.4682 25.3073 69.4899 25.2677 68.0497 25.165C66.3574 25.0436 65.4821 24.0679 65.4098 22.3383C65.3538 20.8258 65.3817 19.3039 65.3817 17.7937C65.3817 14.4745 65.2907 14.3859 61.9972 14.4279C60.2139 14.4512 59.8148 14.848 59.7985 16.6383C59.7821 18.5406 59.8241 20.4453 59.7518 22.3476C59.6887 23.9419 58.8321 24.9526 57.4526 25.1486C56.0241 25.354 52.656 25.3213 50.6836 25.3097V27.31H57.1469C58.2653 27.3243 59.3524 26.9404 60.214 26.227C61.5468 25.0879 61.9902 23.3863 61.9272 21.3556C61.8922 20.2306 61.9272 19.1032 61.9529 17.9758C61.9669 17.537 62.1046 17.0561 62.6531 17.0421C63.2413 17.0421 63.2507 17.5696 63.2577 17.9921C63.2763 19.1965 63.2577 20.401 63.2717 21.6054C63.2857 23.9395 63.6965 25.207 65.0059 26.1967C65.9931 26.924 67.19 27.3107 68.4161 27.2984H74.6763L74.6623 25.3073Z" fill="#8C8C8C"/>
<path d="M74.6631 0.00239474H68.0575C66.9262 -0.0130108 65.8264 0.375092 64.9554 1.09711C63.6109 2.25018 63.1721 3.97045 63.2538 6.02917C63.2981 7.14957 63.2538 8.27463 63.2375 9.39735C63.2375 9.88753 63.0741 10.3964 62.4835 10.38C61.8183 10.3637 61.9607 9.67979 61.9257 9.25497C61.8386 8.29884 61.8261 7.33737 61.8883 6.3793C62.0751 4.04515 61.6012 2.15682 60.0794 0.964064C59.2437 0.327612 58.219 -0.0109143 57.1687 0.00239474H50.6914V2.00276C52.5284 2.00276 55.5068 2.06112 56.7159 2.11013C58.6789 2.19416 59.7129 3.22352 59.7806 5.18655C59.8319 6.66173 59.7806 8.13925 59.8063 9.62143C59.8343 12.6932 60.2474 13.0806 63.2631 12.8892C65.0371 12.7772 65.3826 12.3967 65.3896 10.5808C65.3896 8.71345 65.3662 6.84613 65.4409 4.99048C65.5109 3.29355 66.3909 2.04711 67.9735 1.94207C69.3996 1.84404 72.6418 1.9234 74.6748 1.94207L74.6631 0.00239474Z" fill="#8C8C8C"/>
<path d="M74.6625 21.9205C73.213 21.9205 71.2033 21.9065 70.51 21.9205C69.462 21.9345 68.9298 21.484 68.9345 20.3893C68.9485 15.998 68.9485 11.609 68.9345 7.22232C68.9345 6.10893 69.4853 5.68178 70.5054 5.67011C71.2056 5.67011 73.199 5.65844 74.6695 5.65377V3.91016C72.9189 3.91016 70.4377 3.91016 69.4176 3.91016C67.3472 3.91016 66.8337 4.42834 66.8174 6.55008C66.7987 8.95659 66.8174 11.3654 66.8174 13.7743C66.8174 16.2975 66.78 18.8231 66.8174 21.3486C66.8524 23.2019 67.464 23.7691 69.3103 23.7995C70.349 23.8181 72.9025 23.8135 74.6555 23.7995L74.6625 21.9205Z" fill="#8C8C8C"/>
<path d="M94.6864 14.4722C93.7971 14.4162 92.9008 14.4372 92.0045 14.4349C89.2455 14.4349 86.4819 14.4722 83.7229 14.4092C81.1367 14.3508 80.1773 13.3681 80.133 10.8496C80.1003 8.98227 80.084 7.11495 80.133 5.24763C80.1984 3.21692 81.2534 2.18289 83.2724 2.11287C85.1024 2.04985 94.1262 2.05451 99.9826 2.06385V0.000459678H82.9947C81.7895 -0.0155311 80.6159 0.386115 79.6732 1.13719C79.2175 1.49919 78.8429 1.95277 78.5735 2.46862C78.3041 2.98447 78.1459 3.55111 78.1093 4.13191C77.8759 6.92122 77.7848 9.73387 78.1606 12.5115C78.4804 14.89 79.7712 16.0664 82.145 16.3839C85.0884 16.776 88.0481 16.5333 91.0008 16.5589C94.3246 16.5893 94.3316 16.2462 94.2873 19.8711C94.2663 21.6521 94.0165 21.9135 92.2682 21.9181C88.4029 21.9181 82.0797 21.9181 77.9085 21.9181V23.7971C82.5138 23.7971 89.1942 23.7971 93.461 23.7831C93.8876 23.7655 94.313 23.7257 94.7354 23.6641C95.6878 23.5591 96.1733 23.0269 96.2853 22.0722C96.5231 19.9845 96.5004 17.8754 96.2176 15.7933C96.1033 14.925 95.5057 14.5236 94.6864 14.4722Z" fill="#8C8C8C"/>
<path d="M99.9928 16.1906C99.9928 15.9712 99.9928 15.7915 99.9718 15.6677C99.7734 12.9251 98.1302 11.2329 95.4202 10.9294C92.2388 10.584 89.0526 10.8174 85.8688 10.7567C84.0015 10.7193 83.8498 10.598 83.8428 8.782C83.8428 8.31517 83.8428 7.84834 83.8428 7.38151C83.8592 5.8433 84.0529 5.63556 85.6074 5.6309C88.6418 5.6309 95.1121 5.6309 99.9951 5.6309V3.74023C94.7993 3.74023 87.9532 3.74024 84.5897 3.75191C84.2235 3.75183 83.8577 3.77757 83.495 3.82893C82.1366 4.03434 81.7351 4.47316 81.7141 5.8293C81.6907 7.26714 81.7141 8.70731 81.7141 10.1451C81.7141 12.4046 82.1809 12.8598 84.4544 12.8644C87.6802 12.8644 90.9083 12.8644 94.1341 12.8784C96.823 12.8948 97.808 13.8611 97.8431 16.5104C97.8641 18.1443 97.8617 19.7782 97.8431 21.4121C97.8127 24.2854 96.8604 25.2214 93.9497 25.2284C89.5148 25.2284 82.6641 25.2284 77.9141 25.2284V27.3175H95.2381C96.2061 27.3289 97.1551 27.0491 97.9621 26.5146C99.3999 25.5342 99.9905 23.9937 99.9998 21.8462L99.9928 16.1906Z" fill="#8C8C8C"/>
</svg>
