<svg width="46" height="50" viewBox="0 0 46 50" fill="none" xmlns="http://www.w3.org/2000/svg">
<path d="M23.0008 0V50L3.34963 38.9899L0 8.32538L23.0008 0Z" fill="#ADADAD"/>
<path d="M23 0V50L42.6499 38.9899L45.9995 8.32538L23 0Z" fill="#8C8C8C"/>
<path d="M8.69141 13.1003L10.207 19.2603L20.8488 23.1267H22.3315V9.20117H21.2688V15.2794L20.3049 14.7635V9.20117H19.5268L17.6512 13.7759L8.69141 13.1003Z" fill="#E0E0E0"/>
<path d="M18.7969 9.20117L17.141 13.0185L11.9023 12.5757L15.3496 9.20117H18.7969Z" fill="#E0E0E0"/>
<path d="M18.0577 23.413L16.3525 25.8462V33.4144L10.4219 28.598V20.2676L13.091 21.2012L15.9112 23.875L18.0577 23.413Z" fill="#E0E0E0"/>
<path d="M13.1406 31.7441V34.9887L16.3692 38.1996V34.4478L13.1406 31.7441Z" fill="#E0E0E0"/>
<path d="M37.058 13.1003L35.5425 19.2603L24.9006 23.1267H23.418V9.20117H24.4806V15.2794L25.4445 14.7635V9.20117H26.2226L28.0982 13.7759L37.058 13.1003Z" fill="#E0E0E0"/>
<path d="M26.957 9.20117L28.6129 13.0185L33.8516 12.5757L30.4043 9.20117H26.957Z" fill="#E0E0E0"/>
<path d="M27.6953 23.413L29.4006 25.8462V33.4144L35.3302 28.598V20.2676L32.662 21.2012L29.8419 23.875L27.6953 23.413Z" fill="#E0E0E0"/>
<path d="M32.6072 31.7441V34.9887L29.3787 38.1996V34.4478L32.6072 31.7441Z" fill="#E0E0E0"/>
<path d="M28.6885 30.7278V26.4032L26.7113 23.3887L25.4271 24.175H22.8731H20.3201L19.0348 23.3887L17.0586 26.4032V30.7278L20.5755 33.2351V34.2188L17.0586 31.7191V32.6528L20.5755 35.1601V36.1438L17.0586 33.6441V34.5778L20.5755 37.0851V38.0688L17.0586 35.5691V37.3806L18.5742 39.6405L20.353 41.3451H22.8731H25.3942L27.173 39.6405L28.6885 37.3806V35.5691L25.1716 38.0688V37.0851L28.6885 34.5778V33.6441L25.1716 36.1438V35.1601L28.6885 32.6528V31.7191L25.1716 34.2188V33.2351L28.6885 30.7278Z" fill="#E0E0E0"/>
</svg>
