<svg fill="none" xmlns="http://www.w3.org/2000/svg" viewBox="0 0 50 50"><path d="M33.8 18.4c3.2 3.4 3.4 7.6 3.6 8.6H12.8c0-.8.2-5.4 4-9 3.4-3.2 7.4-3.4 8.4-3.4.6 0 5.2.2 8.6 3.8ZM50 25c0 13.8-11.2 25-25 25S0 38.8 0 25 11.2 0 25 0s25 11.2 25 25Zm-6.2 6.6c0-1 .2-2.4 0-4h-3.6v-1.2h3.4c-.2-3.2-1-8-4.6-12.2 0-.2-.2-.2-.2-.4l-2.6 2.8-1-1 2.8-2.8c-4.6-4.2-10.2-5-12.2-5v3.8h-1.2V7.8c-2 0-7.8.8-12.4 5.2l2.6 2.6-1 1-2.6-2.6c-3.8 4.2-4.6 9.2-4.8 12.4h3.4v1.2H6.2v.2c-.2 1.6 0 3 0 4l37.6-.2Z" fill="#ADADAD"/></svg>