<svg width="47" height="50" viewBox="0 0 47 50" fill="none" xmlns="http://www.w3.org/2000/svg">
<rect x="17.5" y="36" width="12" height="7" fill="#ADADAD"/>
<path fill-rule="evenodd" clip-rule="evenodd" d="M3.83093 38.9899L23.3747 50L42.9184 38.9899L46.2494 8.32537L23.3747 0L0.5 8.32537L3.83093 38.9899ZM18.5469 36.3453H20.7936C21.2328 36.3453 21.6144 36.4093 21.9386 36.5373C22.2627 36.6653 22.5123 36.8548 22.6875 37.1057C22.8652 37.3566 22.9541 37.6664 22.9541 38.0351C22.9541 38.3551 22.9031 38.6227 22.8012 38.8377C22.6992 39.0528 22.5568 39.2307 22.3738 39.3715C22.249 39.4672 22.1099 39.5512 21.9563 39.6235L23.1462 41.8793V41.9369H21.6719L20.6642 39.9629H19.9232V41.9369H18.5469V36.3453ZM20.7936 38.9222H19.9232V37.386H20.7936C20.9635 37.386 21.106 37.4168 21.221 37.4782C21.3386 37.5397 21.4275 37.628 21.4876 37.7432C21.5478 37.8584 21.5778 37.9967 21.5778 38.158C21.5778 38.3167 21.5478 38.4537 21.4876 38.5689C21.4301 38.6815 21.3439 38.7686 21.2289 38.83C21.1138 38.8915 20.9688 38.9222 20.7936 38.9222ZM24.9813 36.3453L25.9145 38.204L26.8477 36.3453H28.4161L26.8242 39.1181L28.4592 41.9369H26.8751L25.9145 40.0436L24.9538 41.9369H23.3658L25.0048 39.1181L23.4089 36.3453H24.9813Z" fill="#8C8C8C"/>
<path fill-rule="evenodd" clip-rule="evenodd" d="M29.1498 29.5528L31.9807 36.2619L36.5892 36.3462L23.3727 6.86328L10.1562 36.2619L14.9787 36.1776L17.5627 29.5528H29.1498ZM23.3727 16.2861L27.454 25.6081H19.2574L23.3727 16.2861Z" fill="#E0E0E0"/>
</svg>
