<svg fill="none" xmlns="http://www.w3.org/2000/svg" viewBox="0 0 50 48"><path d="M3.227 30.51C.69 17.02 7.395 4.01 22.785 2.28 20.663.011 17.764-.007 16.43.27c-2.355.751-2.281 2.275-4.953 4.244-2.656 1.517-3.99.355-5.925 1.928-1.93 1.56-.584 5.144-1.393 5.84-.804 1.394-3.297 2.635-3.751 4.395-.375 2.25 1.018 3.858.964 5.787.161 1.608-1.6 2.517-1.347 3.82.758 2.128 2.219 3.41 2.907 4 .158.111.325.385.295.225Z" fill="#ADADAD"/><path d="M30.612 11.836a1.018 1.018 0 1 1 0-2.036 1.018 1.018 0 0 1 0 2.036ZM3.822 31.981C1.382 20.257 8.927 10.46 23.538 15.284c8.573 5.015 19.358 4.689 19.845 1.446 1.2-3.886-5.466-11.896-15.433-13.985C8.178-1.114-2.482 20.257 3.821 31.98Z" fill="#ADADAD"/><path d="M36.257 33.289c2.936.318 5.723-.387 8.306-2.492-3.902 4.352-8.781 6.54-14.379 7.136 2.673 2.272 5.25 3.296 7.716 2.858-6.851 1.89-12.592-.19-19.575-7.145-.366 1.872 1.611 4.789 3.65 6.65-11.826-5.126-12.862-21.095 1.557-25.023C8.585 8.09.133 22.045 4.286 33.48c4.062 8.808 14.89 15.588 26.755 14.097 5.764-.706 14.371-4.68 17.887-14.097-2.478 2.224-6.907 4.16-8.884 4.309 6.69-3.344 10.302-9.025 9.288-16.79-1.386 3.299-3.214 5.833-5.502 7.573 4.859-7.573 4.025-11.488.43-15.79 2.571 7.074-.756 14.924-8.003 20.506Z" fill="#ADADAD"/><path d="M32.823 41.437c-.507-.095 1.151.672-2.055-.177-3.207-.849-6.471-1.667-12.444-7.614-.365 1.872 1.612 4.788 3.65 6.65 5.501 3.837 1.76 2.043 10.142 4.94.673-1.338.707-2.528.707-3.799Z" fill="#ADADAD"/><path d="M22.165 11.309s.729-1.076 1.012-1.561c.348-.595.882-1.678.882-1.678s-5.61-1.83-6.986-2.054c-4.28 1.111-4.296 2.904-1.903 5.648.266.306 6.995-.355 6.995-.355Z" fill="#EBEBEB"/></svg>