<svg width="70" height="70" fill="none" xmlns="http://www.w3.org/2000/svg"><g opacity=".9" fill="#fff"><path d="M34.999 54.781c10.924 0 19.782-8.857 19.782-19.782 0-10.924-8.858-19.782-19.782-19.782-10.925 0-19.782 8.858-19.782 19.782 0 10.925 8.857 19.782 19.782 19.782zm0-38.822c10.516 0 19.04 8.524 19.04 19.04 0 10.517-8.524 19.041-19.04 19.041-10.517 0-19.04-8.524-19.04-19.04 0-10.517 8.523-19.041 19.04-19.041z"/><path d="M35 0C15.67 0 0 15.67 0 35s15.67 35 35 35 35-15.67 35-35S54.33 0 35 0zm0 68.688C16.395 68.688 1.312 53.605 1.312 35 1.312 16.395 16.395 1.312 35 1.312c18.605 0 33.688 15.083 33.688 33.688 0 18.605-15.083 33.688-33.688 33.688z"/><path d="M36.102 58.959a2.637 2.637 0 00-.604.088l.096 1.929c.163.02.331.02.494 0 .78-.039 1.24-.458 1.207-1.122-.03-.603-.463-.931-1.193-.895zM41.37 58.15h-.018c.013.397.055.896.057 1.287v1.43l1.378-.394-.768-1.215c-.207-.33-.45-.76-.648-1.108zM51.087 16.919c.975.904 2.108.948 3.155-.199.918-.989.827-2.047-.118-2.899a3.14 3.14 0 00-.53-.405l-2.866 3.139a2.8 2.8 0 00.359.364zM25.765 10.041c.689-.245.975-.733.788-1.27-.187-.538-.68-.711-1.32-.505a3.812 3.812 0 00-.612.276l.598 1.692.546-.193z"/><path d="M35 2.535C17.07 2.535 2.535 17.07 2.535 35 2.535 52.93 17.07 67.463 35 67.463c17.93 0 32.464-14.535 32.464-32.465C67.464 17.07 52.93 2.535 35 2.535zm19.768 10.348c.912.827 1.353 1.535 1.496 2.307.163.827-.063 1.7-.827 2.546-.826.921-1.75 1.249-2.57 1.216-.888-.042-1.839-.551-2.779-1.4a12.243 12.243 0 01-1.165-1.196l4.299-4.71c.545.372 1.063.785 1.546 1.237zm-3.404-2.58l-.581 1.054-2.219-1.227-.653 1.169 2.092 1.157-.579 1.047-2.092-1.157-.758 1.359 2.337 1.292-.584 1.056-3.615-1.998 3.147-5.686 3.505 1.935zm-5.404-2.7l-2.205 6.104-1.378-.501 2.205-6.107 1.378.504zM38.9 5.74l3.896.758-.229 1.182-2.45-.477-.275 1.458 2.282.433-.235 1.185-2.29-.444-.493 2.566-1.447-.275L38.9 5.74zm-3.5-.196l1.471.055-.242 6.49-1.472-.052.242-6.493zM56.302 35c0 11.765-9.538 21.304-21.303 21.304S13.697 46.765 13.697 35 23.235 13.695 35 13.695 56.303 23.235 56.303 35zM33.837 5.47l.148 1.227-1.76.213.63 5.236-1.463.176-.63-5.222-1.734.21-.146-1.247 4.955-.592zm-9.12 1.836c.907-.322 1.59-.41 2.15-.217.49.179.865.581 1.014 1.08a1.718 1.718 0 01-.551 1.89v.028c.488.022.868.347 1.22.857.436.623.91 1.356 1.103 1.549l-1.416.502a7.971 7.971 0 01-.932-1.276c-.432-.706-.771-.827-1.336-.632l-.42.147.85 2.408-1.378.485-2.106-6.043a13.02 13.02 0 011.802-.778zM20.906 8.96l.637 1.022-2.155 1.34.71 1.146 2.032-1.251.63 1.014-2.03 1.273.826 1.31 2.255-1.42.636 1.025-3.522 2.186-3.425-5.512 3.406-2.133zm-6.209 4.31a3.89 3.89 0 011.348-.906l.598 1.044c-.392.157-.75.391-1.053.686-.827.827-.995 1.949 0 2.985.907.934 2.031.984 2.97.072.301-.293.546-.632.731-1.006l.97.667a4.208 4.208 0 01-1.003 1.378c-1.61 1.565-3.412 1.377-4.702.04-1.543-1.603-1.27-3.59.141-4.96zm1.05 42.314c.292.3.631.549 1.003.736l-.672.954a4.111 4.111 0 01-1.359-1.006c-1.557-1.615-1.356-3.42-.022-4.705 1.596-1.537 3.583-1.256 4.96.16.395.38.7.84.902 1.35l-1.047.596a3.18 3.18 0 00-.684-1.056c-.807-.826-1.93-1.003-2.985 0-.961.904-1.005 2.029-.096 2.971zm4.015 4.628c-1.64-1.012-1.838-2.842-.868-4.41 1.02-1.654 2.841-2.246 4.476-1.24 1.697 1.044 1.843 2.888.904 4.41-1.125 1.81-2.894 2.234-4.512 1.24zm11.955 4.25l-1.402-.337.487-2.44c.155-.765.345-1.691.552-2.609h-.028a34.906 34.906 0 01-1.29 2.28l-1.358 2.278-1.103-.275-.088-2.607a30.652 30.652 0 01.02-2.605h-.02c-.242.844-.504 1.811-.738 2.588l-.684 2.376-1.32-.317 1.93-6.223 1.9.457.114 2.258c.022.78.03 1.612 0 2.386h.027c.356-.689.772-1.471 1.147-2.125l1.177-1.929 1.865.447-1.188 6.396zm6.51-3.148c-.477.496-1.207.747-2.073.79a3.78 3.78 0 01-.501 0l.116 2.321-1.453.072-.322-6.4c.65-.131 1.312-.211 1.976-.233.904-.047 1.557.096 2.009.418.466.348.75.885.769 1.467.05.57-.14 1.138-.521 1.565zm6.013 1.631l-.94-1.466-1.788.51v1.73l-1.464.42.127-6.794 1.855-.526 3.718 5.694-1.508.432zm6.852-3.384l-2.497-1.41a24.74 24.74 0 01-2.161-1.365l-.02.022c.483.711.979 1.48 1.533 2.384l1.025 1.667-1.15.706-3.403-5.534 1.464-.899 2.395 1.323c.719.4 1.41.849 2.07 1.342l.024-.016a24.266 24.266 0 01-1.524-2.24l-.995-1.618 1.15-.709 3.4 5.537-1.311.81zm4.205-3.448l-1.93-1.846-4.188-1.182 1.163-1.207 1.587.603c.48.182.827.325 1.243.502v-.014a21.163 21.163 0 01-.551-1.218l-.672-1.554 1.146-1.188 1.268 4.18 1.95 1.88-1.016 1.044z"/><path d="M22.725 55.526c-.846-.52-1.833-.02-2.48 1.055-.648 1.075-.629 2.161.21 2.676.837.516 1.824 0 2.48-1.06.603-.995.653-2.142-.21-2.671zM21.087 34.61a1.205 1.205 0 01-.71.138h-.521v1.378h6.25v-1.378h-.513a1.21 1.21 0 01-.719-.137c-.105-.091-.16-.326-.16-.698v-5.321c0-.37.053-.601.157-.692.22-.121.472-.171.722-.14h.513V26.38h-6.25v1.378h.52c.248-.03.496.02.714.14.105.092.157.323.157.693v5.321c0 .372-.052.607-.16.698zM28.225 31.557c.273.173.568.311.874.41.402.146.976.326 1.722.532.23.066.552.15.948.248 1.24.317 1.86.711 1.86 1.18a.826.826 0 01-.43.733 2.04 2.04 0 01-1.14.276 3.376 3.376 0 01-2.045-.634 3.473 3.473 0 01-1.246-1.764h-1.513v3.632h1.439l.388-.551a8.052 8.052 0 003.514.788c1.362 0 2.445-.292 3.247-.876a2.753 2.753 0 001.207-2.351 2.521 2.521 0 00-.981-2.097c-.654-.513-1.792-.943-3.412-1.287-.157-.033-.38-.08-.667-.135-1.163-.224-1.745-.554-1.745-.987a.865.865 0 01.458-.733c.347-.21.75-.314 1.157-.298a3.288 3.288 0 011.93.507c.504.378.854.926.98 1.544h1.767v-3.368H35.03l-.276.49a7.477 7.477 0 00-1.654-.55 9.022 9.022 0 00-1.827-.18c-1.287 0-2.32.3-3.103.902a2.845 2.845 0 00-1.177 2.37c-.013.43.086.854.29 1.231.237.389.56.72.942.968zM39.133 35.048c1.078.918 2.563 1.378 4.457 1.378 1.893 0 3.392-.46 4.492-1.378 1.08-.917 1.62-2.182 1.623-3.789.003-1.607-.537-2.872-1.62-3.795-1.078-.918-2.566-1.378-4.465-1.378s-3.393.46-4.484 1.378c-1.08.918-1.62 2.183-1.62 3.795s.54 2.874 1.617 3.79zm2.938-6.614a1.65 1.65 0 011.549-.87 1.623 1.623 0 011.538.881c.322.587.485 1.527.482 2.822 0 1.287-.16 2.222-.482 2.798a1.807 1.807 0 01-3.09 0c-.322-.582-.482-1.524-.482-2.83 0-1.307.163-2.236.49-2.79l-.005-.01zM22.001 38.113a1.4 1.4 0 00-1.45 1.35v.028a1.158 1.158 0 001.111 1.202h.091c.284.022.563-.08.77-.276h.018a1.188 1.188 0 01-.493.722c-.229.143-.49.226-.76.237-.13.014-.26.014-.39 0v.706c.136.008.274.008.409 0 .537 0 1.058-.19 1.469-.538.468-.466.713-1.11.675-1.772.008-.901-.46-1.659-1.45-1.659zm.494 1.695a.573.573 0 01-.5.253.55.55 0 01-.553-.548c0-.022 0-.044.003-.066 0-.403.22-.675.529-.675.408 0 .55.402.55.81a.452.452 0 01-.03.226zM23.994 40.11c0 1.103.444 1.984 1.439 1.984.995 0 1.463-.826 1.463-2.006 0-1.055-.402-1.973-1.433-1.973-1.03 0-1.469.882-1.469 1.995zm2.004 0c0 .877-.19 1.315-.552 1.315-.36 0-.55-.42-.55-1.304 0-.884.22-1.314.55-1.314.331 0 .552.44.552 1.292v.011zM28.899 38.115c-.995 0-1.47.882-1.47 1.995 0 1.114.444 1.984 1.442 1.984s1.46-.826 1.46-2.006c0-1.055-.402-1.973-1.432-1.973zm0 3.307c-.35 0-.552-.419-.552-1.303 0-.885.22-1.315.552-1.315.33 0 .55.452.55 1.303 0 .852-.206 1.307-.556 1.307l.006.008zM31.18 38.654l.146.675.736-.35h.01v3.05h.871v-3.85h-.746l-1.017.475zM35.837 40.174h-1.552v.598h1.552v-.598zM37.692 41.278l.355-.298c.552-.496 1.026-1.011 1.026-1.653 0-.7-.48-1.21-1.35-1.21a2.138 2.138 0 00-1.263.397l.254.644c.234-.193.523-.303.826-.32.444 0 .634.251.634.566 0 .449-.421.881-1.262 1.634l-.496.45v.55h2.717v-.741h-1.452l.011-.02zM41.256 38.115c-.995 0-1.469.882-1.469 1.995 0 1.114.447 1.984 1.441 1.984.995 0 1.464-.826 1.464-2.006 0-1.055-.405-1.973-1.436-1.973zm0 3.307c-.347 0-.551-.419-.551-1.303 0-.885.22-1.315.551-1.315.33 0 .551.452.551 1.303 0 .852-.193 1.307-.556 1.307l.005.008zM43.537 38.654l.146.675.736-.35h.011v3.05h.87v-3.85h-.746l-1.017.475zM48.972 39.78c-.3-.194-.653-.29-1.011-.276a1.908 1.908 0 00-.251 0l.082-.593h1.494v-.738h-2.12l-.255 2.02c.173-.025.347-.039.52-.036.772 0 1.086.242 1.086.64 0 .396-.397.586-.771.586a2.21 2.21 0 01-.871-.19l-.16.675c.336.152.703.226 1.072.218 1.036 0 1.654-.634 1.654-1.35.019-.378-.16-.739-.47-.957z"/></g></svg>