<svg xmlns="http://www.w3.org/2000/svg" fill="none" viewBox="0 0 246 100">
    <path fill="#fff" d="M51.594 100 5.998 75.017V24.983L51.594 0l45.597 24.983v50.034L51.594 100ZM7.25 74.263 51.594 98.56 95.94 74.263V25.737L51.594 1.44 7.25 25.737v48.526Z"/>
    <path fill="#fff" d="M51.577 97.284 8.947 73.733V63.677h3.128v8.177l39.502 21.824L91.08 71.854v-8.177h3.129v10.056l-42.63 23.551ZM94.207 36H91.08v-7.642L51.577 6.533 12.075 28.357v7.642H8.947v-9.52l42.63-23.552 42.63 23.552v9.52Z"/>
    <path fill="#fff" d="m51.594 92.915-39.08-21.443V28.528l39.08-21.444 39.08 21.444v42.944l-39.08 21.443ZM13.556 70.843l38.038 20.872 38.038-20.871V29.156L51.594 8.285 13.556 29.156v41.688Z"/>
    <path fill="#fff" d="M42.76 43.457h-2.02v12.92h2.02v-12.92ZM49.831 52.242a2.004 2.004 0 0 1-.577 1.554 1.956 1.956 0 0 1-1.543.564c-1.213 0-1.415-1.137-1.415-1.86v-4.91h-2.02v4.91a4.023 4.023 0 0 0 1.01 2.894c.315.306.687.546 1.095.706.407.16.842.236 1.279.224.76.015 1.505-.22 2.121-.672v.724h2.02V47.59h-2.02v4.65h.05ZM53.871 44.492h2.02v3.1h1.516v2.068h-1.516v6.718h-2.02V49.66h-1.514v-2.067h1.514v-3.1ZM63.766 53.74a2.386 2.386 0 0 1-1.667.621 2.437 2.437 0 0 1-1.715-.736 2.496 2.496 0 0 1-.709-1.744c0-.654.255-1.28.709-1.745a2.437 2.437 0 0 1 1.715-.736 2.476 2.476 0 0 1 1.667.62l.302.259 1.365-1.396-.355-.31a4.467 4.467 0 0 0-2.979-1.137 4.17 4.17 0 0 0-1.694.302 4.211 4.211 0 0 0-1.434.962 4.27 4.27 0 0 0-.935 1.462 4.311 4.311 0 0 0-.28 1.719c-.01.869.23 1.722.694 2.453a4.4 4.4 0 0 0 1.914 1.662 4.339 4.339 0 0 0 4.765-.808l.354-.31-1.364-1.395-.353.258ZM70.432 47.436a2.879 2.879 0 0 1 2.222.93 3.993 3.993 0 0 1 .909 2.894v5.117h-2.02v-5.2c.001-.724.005-1.777-1.162-1.777-.505 0-1.869.155-1.869 2.119v4.858h-2.02v-12.92h2.02v4.651a2.91 2.91 0 0 1 1.92-.672ZM37.913 53.122a3.949 3.949 0 0 1-2.093 1.164c-.8.161-1.629.068-2.374-.265a3.977 3.977 0 0 1-1.792-1.598 4.047 4.047 0 0 1-.559-2.35 4.025 4.025 0 0 1 .203-1.608c.176-.516.455-.99.82-1.392a3.934 3.934 0 0 1 1.3-.946 3.894 3.894 0 0 1 1.566-.343c.539-.01 1.074.096 1.57.31.496.213.942.53 1.309.93l.302.31 1.364-1.395-.304-.31a5.764 5.764 0 0 0-1.934-1.351 5.704 5.704 0 0 0-2.307-.458 5.812 5.812 0 0 0-2.313.504 5.87 5.87 0 0 0-1.93 1.386 5.955 5.955 0 0 0-1.23 2.045 6.007 6.007 0 0 0-.334 2.37c-.04.8.08 1.6.354 2.352.273.752.693 1.44 1.235 2.024a5.886 5.886 0 0 0 1.92 1.373 5.827 5.827 0 0 0 2.298.504 6.137 6.137 0 0 0 4.292-1.809l.304-.31-1.364-1.395-.303.258Z"/>
    <path fill="#fff" d="M63.463 51.881a1.5 1.5 0 0 0-.426-1.056 1.465 1.465 0 0 0-1.04-.442 1.5 1.5 0 0 0-1.028.452c-.273.28-.429.654-.436 1.046a1.498 1.498 0 0 0 .424 1.06 1.463 1.463 0 0 0 1.041.44 1.449 1.449 0 0 0 1.042-.44 1.484 1.484 0 0 0 .423-1.06Z"/>
    <path fill="#fff" fill-rule="evenodd" d="M89.915 28.737 51.595 7.843 13.326 28.737v10.078h76.589V28.737Zm-76.589 32.29V71L51.595 91.84 89.915 71v-9.972H13.326ZM83.502 36.6H19.687v-.633h63.815v.633Zm0 27.12H19.687v-.633h63.815v.633ZM53.14 21.578c.184-.401.274-.84.266-1.282v-.228a2.852 2.852 0 0 0-.276-1.265 1.996 1.996 0 0 0-.756-.854 2.076 2.076 0 0 0-1.109-.299 2.106 2.106 0 0 0-1.122.303c-.33.205-.593.504-.756.86-.182.402-.272.84-.262 1.282v.28c0 .43.096.854.282 1.24.168.346.43.635.756.834.337.196.72.296 1.109.289.39.007.776-.097 1.112-.3.33-.205.593-.504.756-.86Zm-1.18-2.608c.185.342.27.73.246 1.119v.227c.02.385-.064.767-.245 1.106a.775.775 0 0 1-.69.384.772.772 0 0 1-.708-.391 2.164 2.164 0 0 1-.239-1.119l.004-.364c.033-.898.346-1.347.937-1.347a.769.769 0 0 1 .696.385Zm-4.573-.33h1.469v-.922h-4.09v.922h1.442v4.03h1.18v-4.03Zm7.806 2.35v1.68h-1.18v-4.952h1.953c.342-.007.681.065.992.211.276.127.509.334.668.595.161.262.244.566.239.874a1.452 1.452 0 0 1-.514 1.16c-.403.308-.9.461-1.405.432h-.753Zm0-.922h.773a.717.717 0 0 0 .521-.173.643.643 0 0 0 .182-.49.803.803 0 0 0-.185-.554.655.655 0 0 0-.504-.211h-.787v1.428ZM36.161 30.835a.494.494 0 0 1 .043.227.43.43 0 0 1-.171.36.752.752 0 0 1-.46.126.966.966 0 0 1-.663-.187.77.77 0 0 1-.201-.588h-1.183c-.006.307.078.608.242.867.18.264.432.47.725.592.341.146.709.22 1.08.214.47.027.936-.103 1.327-.37a1.206 1.206 0 0 0 .483-1.02 1.43 1.43 0 0 0-.215-.754 1.407 1.407 0 0 0-.578-.522 4.261 4.261 0 0 0-.833-.354c-.25-.07-.49-.178-.71-.32a.438.438 0 0 1-.2-.346.434.434 0 0 1 .18-.358.799.799 0 0 1 .502-.142c.18-.01.356.05.493.166a.596.596 0 0 1 .185.47h1.176a1.42 1.42 0 0 0-.232-.803 1.496 1.496 0 0 0-.651-.544 2.247 2.247 0 0 0-.945-.19 2.559 2.559 0 0 0-.974.176 1.527 1.527 0 0 0-.672.49c-.157.208-.24.463-.235.724.012.288.109.566.278.797.17.232.404.407.673.503.244.117.495.218.752.302.229.066.445.168.642.303.061.048.11.11.142.181Zm5.97-.83a2.95 2.95 0 0 1-.265 1.281 1.986 1.986 0 0 1-.756.86 2.082 2.082 0 0 1-1.112.3 2.12 2.12 0 0 1-1.11-.29 1.996 1.996 0 0 1-.755-.832 2.882 2.882 0 0 1-.283-1.242v-.279c-.008-.441.081-.88.263-1.282.163-.355.426-.655.756-.86.339-.204.727-.31 1.122-.303.39-.006.774.098 1.109.3.329.204.592.5.756.853.188.395.282.828.276 1.265v.228Zm-1.199-.208a2.082 2.082 0 0 0-.245-1.119.782.782 0 0 0-.696-.384c-.591 0-.904.449-.937 1.346l-.004.364c-.022.388.06.775.239 1.119a.785.785 0 0 0 .709.391.763.763 0 0 0 .689-.384c.18-.338.266-.721.245-1.105v-.228Zm2.987.609h1.902v-.919H43.92v-1.139h2.094v-.921H42.74v4.95h1.18v-1.971Zm6.493-2.058h-1.469v4.03h-1.18v-4.03h-1.441v-.921h4.09v.921Zm4.906-.922-.561 3.105-.683-3.105h-1.001l-.672 3.105-.561-3.105h-1.173l1.042 4.952h1.22l.641-2.823.655 2.823h1.224l1.038-4.952h-1.17Zm4.26 4.027h-1.616l-.282.925h-1.26l1.794-4.952h1.11l1.807 4.952h-1.267l-.285-.925Zm-1.334-.922h1.052l-.527-1.717-.524 1.717Zm4.426.099h.639l.863 1.748h1.264v-.051l-1.022-1.996c.264-.116.489-.307.645-.551.148-.26.22-.557.209-.857a1.34 1.34 0 0 0-.49-1.105 2.129 2.129 0 0 0-1.362-.392h-1.925v4.952h1.18V30.63Zm.746-.922h-.746v-1.36h.746a.654.654 0 0 1 .504.184.813.813 0 0 1 0 1 .668.668 0 0 1-.504.176Zm5.599.572h-1.856v1.18h2.191v.918h-3.37v-4.951h3.377v.921H67.16v1.044h1.855v.888ZM30.706 68.58v4.951h1.61c.403.004.8-.102 1.15-.305a2.09 2.09 0 0 0 .799-.844c.194-.376.292-.796.286-1.22v-.229a2.539 2.539 0 0 0-.296-1.214 2.055 2.055 0 0 0-.806-.84 2.286 2.286 0 0 0-1.167-.299h-1.576Zm1.18 4.033v-3.111h.396a.923.923 0 0 1 .793.364c.204.321.299.7.273 1.081v.214c.026.383-.07.764-.273 1.088a.921.921 0 0 1-.78.364h-.41Zm6.304-1.18h-1.855v1.18h2.191v.918h-3.37v-4.95h3.377v.92h-2.198v1.045h1.855v.887Zm3.69-2.853-.975 3.605-.971-3.605h-1.307l1.633 4.951h1.29l1.647-4.95h-1.318Zm4.71 2.853h-1.854v1.18h2.19v.918h-3.37v-4.95h3.378v.92h-2.198v1.045h1.855v.887Zm4.05 1.18h-2.053v-4.033h-1.18v4.951h3.233v-.918Zm4.426-1.455a2.95 2.95 0 0 1-.266 1.282 1.985 1.985 0 0 1-.756.86 2.082 2.082 0 0 1-1.112.3 2.121 2.121 0 0 1-1.11-.29 1.997 1.997 0 0 1-.755-.833 2.88 2.88 0 0 1-.282-1.241v-.279c-.01-.442.08-.88.262-1.282.163-.356.426-.655.756-.86.339-.205.728-.31 1.122-.303.39-.007.774.097 1.11.3.328.203.59.5.755.853.188.394.282.827.276 1.265v.228Zm-1.2-.208a2.082 2.082 0 0 0-.245-1.118.781.781 0 0 0-.696-.385c-.591 0-.904.45-.937 1.347l-.004.364c-.022.388.06.774.239 1.118a.784.784 0 0 0 .709.392.763.763 0 0 0 .689-.385c.18-.338.266-.72.245-1.105v-.228Zm2.987 2.582v-1.68h.753a2.108 2.108 0 0 0 1.405-.432 1.434 1.434 0 0 0 .514-1.16 1.622 1.622 0 0 0-.239-.874 1.538 1.538 0 0 0-.668-.595 2.225 2.225 0 0 0-.992-.21h-1.952v4.95h1.18Zm.773-2.602h-.773v-1.428h.787a.647.647 0 0 1 .504.21.802.802 0 0 1 .185.555.647.647 0 0 1-.182.49.718.718 0 0 1-.52.173Zm5.565.503h-1.855v1.18h2.191v.918h-3.37v-4.95h3.377v.92h-2.198v1.045h1.855v.887Zm1.996.35h.639l.863 1.748h1.264v-.05l-1.022-1.997c.264-.115.489-.307.645-.55.148-.26.22-.558.209-.858a1.34 1.34 0 0 0-.49-1.105 2.129 2.129 0 0 0-1.362-.39h-1.925v4.95h1.18v-1.747Zm.746-.921h-.746v-1.36h.746a.652.652 0 0 1 .504.183.813.813 0 0 1 0 1 .667.667 0 0 1-.504.177Zm5.044 1.127a.487.487 0 0 0-.141-.182 2.232 2.232 0 0 0-.642-.302 6.124 6.124 0 0 1-.752-.303 1.427 1.427 0 0 1-.673-.502 1.454 1.454 0 0 1-.279-.797 1.173 1.173 0 0 1 .236-.724c.175-.223.407-.393.672-.49a2.56 2.56 0 0 1 .974-.177c.325-.006.647.06.945.19.264.114.49.303.652.545.155.237.236.517.231.802h-1.176a.603.603 0 0 0-.185-.47.703.703 0 0 0-.494-.166.799.799 0 0 0-.5.143.428.428 0 0 0-.182.357.443.443 0 0 0 .202.347c.22.142.458.25.709.32.29.087.569.206.833.353.237.116.438.297.578.523.14.225.215.486.215.753a1.223 1.223 0 0 1-.484 1.02c-.39.267-.856.397-1.327.37a2.635 2.635 0 0 1-1.079-.214 1.655 1.655 0 0 1-.725-.591 1.572 1.572 0 0 1-.242-.868h1.182a.78.78 0 0 0 .202.589c.19.141.426.208.662.187a.752.752 0 0 0 .46-.126.423.423 0 0 0 .172-.36.493.493 0 0 0-.044-.227ZM47.13 83.255v-.822h-2.024l.743-.844c.176-.176.334-.343.473-.5.14-.16.26-.317.359-.47.099-.153.174-.308.226-.463a1.46 1.46 0 0 0 .081-.483c0-.296-.062-.548-.186-.757a1.21 1.21 0 0 0-.547-.483c-.241-.113-.54-.17-.896-.17-.347 0-.65.075-.909.224a1.589 1.589 0 0 0-.82 1.409h1.06c0-.156.026-.294.078-.416a.664.664 0 0 1 .223-.29.58.58 0 0 1 .348-.105c.126 0 .233.027.321.08a.507.507 0 0 1 .2.234.874.874 0 0 1 .01.669c-.041.106-.106.224-.196.355-.088.13-.206.281-.355.453l-1.588 1.682v.697h3.399Zm3.957-2.024v-.876c0-.29-.027-.548-.081-.774a1.987 1.987 0 0 0-.227-.588 1.422 1.422 0 0 0-.354-.408 1.427 1.427 0 0 0-.47-.24 1.917 1.917 0 0 0-.557-.078c-.25 0-.48.04-.686.122a1.382 1.382 0 0 0-.534.378 1.75 1.75 0 0 0-.349.649 3.28 3.28 0 0 0-.118.94v.875c0 .288.026.546.078.773.054.228.13.424.23.588.099.165.217.302.355.412.14.109.296.189.47.24.173.052.36.078.56.078.25 0 .478-.04.683-.121a1.38 1.38 0 0 0 .534-.382c.15-.172.266-.389.344-.653a3.2 3.2 0 0 0 .122-.935Zm-1.054-1.014v1.145c0 .21-.015.388-.044.534a1.019 1.019 0 0 1-.125.355.517.517 0 0 1-.196.193.582.582 0 0 1-.264.057.632.632 0 0 1-.22-.037.47.47 0 0 1-.178-.118.718.718 0 0 1-.132-.217 1.701 1.701 0 0 1-.081-.324 3.173 3.173 0 0 1-.028-.443v-1.145c0-.21.014-.387.041-.53.03-.147.071-.263.125-.349a.51.51 0 0 1 .467-.253.56.56 0 0 1 .395.159.63.63 0 0 1 .128.212c.036.088.063.195.081.321.02.124.03.27.03.44Zm5.085 2.216v.822h-3.399v-.697l1.588-1.682c.149-.172.267-.323.355-.453.09-.13.155-.25.196-.355a.876.876 0 0 0-.01-.67.507.507 0 0 0-.2-.232.601.601 0 0 0-.32-.081.58.58 0 0 0-.349.104.664.664 0 0 0-.223.291c-.051.122-.077.26-.077.416h-1.061a1.586 1.586 0 0 1 .82-1.41c.26-.148.563-.223.91-.223.356 0 .654.057.895.17.241.112.424.273.548.483.123.21.185.462.185.757 0 .166-.026.327-.08.483-.052.155-.128.31-.227.463-.1.153-.218.31-.358.47-.14.157-.298.324-.473.5l-.744.844h2.024Zm3.995.822v-.822h-2.025l.744-.844c.176-.176.333-.343.473-.5.14-.16.26-.317.358-.47.1-.153.175-.308.227-.463a1.46 1.46 0 0 0 .08-.483c0-.296-.061-.548-.185-.757a1.21 1.21 0 0 0-.548-.483c-.24-.113-.54-.17-.895-.17-.347 0-.65.075-.91.224a1.59 1.59 0 0 0-.82 1.409h1.06c0-.156.027-.294.079-.416a.664.664 0 0 1 .223-.29.58.58 0 0 1 .348-.105c.126 0 .233.027.32.08a.507.507 0 0 1 .2.234.876.876 0 0 1 .01.669c-.04.106-.106.224-.196.355-.088.13-.206.281-.355.453l-1.588 1.682v.697h3.4ZM127.646 25.047h-.156v1.555h.172c.844 0 1.578-.11 2.203-.329.63-.224 1.161-.533 1.594-.93a4.814 4.814 0 0 0 1.054-1.39 6.458 6.458 0 0 0 .586-1.726c.12-.625.18-1.274.18-1.946v-.664c0-.64-.081-1.24-.242-1.797a4.499 4.499 0 0 0-.719-1.468 3.41 3.41 0 0 0-1.172-.993c-.463-.24-1.002-.359-1.617-.359-.578 0-1.096.104-1.555.313-.453.203-.838.49-1.156.859-.318.364-.56.786-.726 1.265-.167.48-.25.993-.25 1.54 0 .505.067.986.203 1.445.135.458.338.864.609 1.219.276.354.62.635 1.031.843.417.203.896.305 1.438.305.448 0 .862-.094 1.242-.281a3.344 3.344 0 0 0 1.008-.75l.015-.017a5.411 5.411 0 0 1-.171 1.032 3.07 3.07 0 0 1-.618 1.196c-.286.338-.672.604-1.156.797-.479.187-1.078.28-1.797.28Zm3.758-4.975v-.752c0-.463-.049-.87-.148-1.218a2.524 2.524 0 0 0-.407-.883 1.73 1.73 0 0 0-.601-.54 1.517 1.517 0 0 0-.727-.179c-.286 0-.544.065-.773.195-.224.125-.414.3-.571.524a2.566 2.566 0 0 0-.351.773 3.617 3.617 0 0 0-.117.938c0 .312.036.614.109.906.078.286.193.542.344.766.151.224.341.4.57.53.229.131.498.196.805.196.292 0 .56-.055.805-.164a2.1 2.1 0 0 0 .64-.46c.178-.189.319-.399.422-.632ZM120.263 22.477v1.5h-1.421v2.554h-1.883v-2.554h-4.899l-.062-1.133 4.906-7.688h1.938v7.32h1.421Zm-3.484-4.524.18-.308v4.832h-3l2.82-4.524Z" clip-rule="evenodd"/>
    <path fill="#fff" d="M121.709 25.594c0-.292.099-.537.297-.735.198-.203.466-.304.804-.304.344 0 .612.101.805.304a.997.997 0 0 1 .297.735.997.997 0 0 1-.297.734c-.193.198-.461.297-.805.297-.338 0-.606-.099-.804-.297a.997.997 0 0 1-.297-.734Z"/>
    <path fill="#fff" fill-rule="evenodd" d="M148.42 20.531v.625c0 .86-.112 1.63-.336 2.313-.224.682-.545 1.263-.961 1.742-.412.48-.906.846-1.485 1.102a4.788 4.788 0 0 1-1.921.375 4.78 4.78 0 0 1-1.915-.375 4.308 4.308 0 0 1-1.492-1.102c-.422-.48-.75-1.06-.984-1.742-.229-.683-.344-1.453-.344-2.313v-.625c0-.86.115-1.627.344-2.304.229-.683.552-1.264.969-1.743a4.172 4.172 0 0 1 1.492-1.101 4.687 4.687 0 0 1 1.914-.383c.703 0 1.344.128 1.922.383.578.25 1.075.617 1.492 1.101.417.48.737 1.06.961 1.743.229.677.344 1.445.344 2.304Zm-1.961.625v-.64c0-.636-.063-1.196-.188-1.68-.12-.49-.299-.898-.539-1.227a2.248 2.248 0 0 0-.867-.75 2.568 2.568 0 0 0-1.164-.257c-.432 0-.818.085-1.156.257a2.332 2.332 0 0 0-.868.75c-.234.328-.414.737-.539 1.227-.125.484-.187 1.044-.187 1.68v.64c0 .636.062 1.198.187 1.688s.308.903.547 1.242c.245.333.537.586.875.758.339.166.724.25 1.157.25.437 0 .825-.084 1.164-.25.338-.172.625-.425.859-.758.234-.339.411-.753.531-1.242a6.85 6.85 0 0 0 .188-1.688Z" clip-rule="evenodd"/>
    <path fill="#fff" d="M159.404 26.531V15.156h-1.945v8.164l-5.117-8.164h-1.961v11.375h1.961v-8.148l5.101 8.148h1.961ZM172.443 22.828h1.953a4.503 4.503 0 0 1-.625 1.992 3.715 3.715 0 0 1-1.492 1.367c-.641.334-1.419.5-2.336.5-.703 0-1.336-.125-1.898-.375a4.16 4.16 0 0 1-1.446-1.078 4.887 4.887 0 0 1-.922-1.695c-.208-.661-.312-1.401-.312-2.219v-.945c0-.818.107-1.557.32-2.219a4.915 4.915 0 0 1 .938-1.695 4.049 4.049 0 0 1 1.461-1.086c.573-.25 1.216-.375 1.929-.375.907 0 1.672.167 2.297.5.625.333 1.11.794 1.453 1.383.349.588.563 1.263.641 2.023h-1.953c-.052-.49-.167-.909-.344-1.258a1.774 1.774 0 0 0-.765-.796c-.339-.188-.782-.282-1.329-.282-.447 0-.838.084-1.171.25a2.208 2.208 0 0 0-.836.735c-.224.323-.394.721-.508 1.195a7.083 7.083 0 0 0-.164 1.61v.96c0 .573.049 1.094.148 1.563.104.463.261.862.469 1.195.213.334.484.591.812.774.329.182.722.273 1.18.273.557 0 1.008-.088 1.352-.266a1.77 1.77 0 0 0 .789-.773c.182-.344.302-.763.359-1.258ZM183.302 26.531v-1.554h-5.164v-9.82h-1.961V26.53h7.125ZM190.873 15.156h1.953v7.602c0 .864-.188 1.588-.563 2.172a3.533 3.533 0 0 1-1.531 1.32c-.64.292-1.357.438-2.148.438-.818 0-1.547-.146-2.188-.438a3.49 3.49 0 0 1-1.515-1.32c-.365-.584-.547-1.308-.547-2.172v-7.602h1.953v7.602c0 .547.094.997.281 1.351.188.35.453.607.797.774.344.166.75.25 1.219.25.468 0 .872-.084 1.211-.25.343-.167.609-.425.797-.774.187-.354.281-.804.281-1.351v-7.602ZM199.638 26.531V16.72h3.571v-1.563h-9.055v1.563h3.539v9.812h1.945ZM211.209 22.828h1.953c-.063.745-.271 1.409-.625 1.992a3.722 3.722 0 0 1-1.492 1.367c-.641.334-1.42.5-2.336.5-.703 0-1.336-.125-1.899-.375a4.165 4.165 0 0 1-1.445-1.078 4.887 4.887 0 0 1-.922-1.695c-.208-.661-.312-1.401-.312-2.219v-.945c0-.818.106-1.557.32-2.219a4.913 4.913 0 0 1 .937-1.695 4.066 4.066 0 0 1 1.461-1.086c.573-.25 1.217-.375 1.93-.375.906 0 1.672.167 2.297.5a3.613 3.613 0 0 1 1.453 1.383c.349.588.563 1.263.641 2.023h-1.953c-.053-.49-.167-.909-.344-1.258a1.77 1.77 0 0 0-.766-.796c-.338-.188-.781-.282-1.328-.282-.448 0-.838.084-1.172.25a2.216 2.216 0 0 0-.836.735c-.224.323-.393.721-.508 1.195a7.14 7.14 0 0 0-.164 1.61v.96c0 .573.05 1.094.149 1.563a3.8 3.8 0 0 0 .469 1.195c.213.334.484.591.812.774.328.182.721.273 1.18.273.557 0 1.008-.088 1.351-.266a1.77 1.77 0 0 0 .789-.773c.183-.344.302-.763.36-1.258ZM222.013 21.46h-5.109v5.071h-1.961V15.156h1.961v4.75h5.109v-4.75h1.954v11.375h-1.954v-5.07Z"/>
    <path fill="#fff" fill-rule="evenodd" d="M114.099 83.32h-.148v1.227h.148c.943 0 1.735-.125 2.375-.375.646-.255 1.17-.6 1.571-1.031.401-.438.705-.933.914-1.485a7.15 7.15 0 0 0 .429-1.734c.079-.61.118-1.209.118-1.797v-.523c0-.579-.068-1.141-.204-1.688a4.637 4.637 0 0 0-.64-1.477 3.22 3.22 0 0 0-1.117-1.046c-.459-.26-1.013-.391-1.664-.391-.579 0-1.089.102-1.532.305a3.067 3.067 0 0 0-1.101.851c-.297.36-.521.776-.672 1.25a4.991 4.991 0 0 0-.227 1.524c0 .463.063.922.188 1.375.13.448.325.854.586 1.218.265.365.604.657 1.015.875.412.22.899.329 1.461.329.48 0 .922-.102 1.328-.305a3.566 3.566 0 0 0 1.133-.91 7.5 7.5 0 0 1-.148 1.175c-.104.495-.297.94-.578 1.336-.282.396-.683.711-1.203.946-.521.234-1.198.351-2.032.351Zm3.969-5.35a2.62 2.62 0 0 1-1.328 1.366 2.204 2.204 0 0 1-.906.187c-.349 0-.654-.072-.914-.218a1.98 1.98 0 0 1-.641-.61 2.808 2.808 0 0 1-.383-.86 3.878 3.878 0 0 1-.125-.983c0-.38.047-.732.141-1.055.094-.323.229-.604.406-.844.182-.24.404-.424.664-.555.266-.135.565-.203.899-.203.291 0 .567.07.828.211.26.14.492.347.695.617.208.271.37.607.484 1.008.12.401.18.86.18 1.375v.564ZM128.654 79.672v-1.734c0-.745-.055-1.394-.164-1.946-.109-.552-.268-1.018-.477-1.398a2.815 2.815 0 0 0-.742-.922 2.748 2.748 0 0 0-1-.508 4.285 4.285 0 0 0-1.219-.164c-.546 0-1.041.083-1.484.25a2.652 2.652 0 0 0-1.125.828c-.312.38-.555.885-.726 1.516-.167.63-.25 1.411-.25 2.344v1.734c0 .745.054 1.396.164 1.953.109.557.268 1.031.476 1.422.209.39.459.708.75.953.297.24.63.414 1 .523.37.11.774.165 1.211.165.552 0 1.047-.086 1.484-.258a2.73 2.73 0 0 0 1.133-.852c.313-.39.552-.906.719-1.547.167-.64.25-1.427.25-2.36Zm-1.453-1.977v2.211c0 .636-.044 1.182-.133 1.64-.088.454-.224.826-.406 1.118a1.68 1.68 0 0 1-.664.633 2.024 2.024 0 0 1-.93.203c-.276 0-.529-.042-.758-.125a1.626 1.626 0 0 1-.593-.406 2.339 2.339 0 0 1-.438-.696 4.438 4.438 0 0 1-.273-1.015 9.309 9.309 0 0 1-.086-1.352v-2.21c0-.641.047-1.186.14-1.633.094-.448.229-.81.407-1.086.182-.276.406-.477.671-.602.266-.13.571-.195.914-.195.282 0 .534.041.758.125.229.078.43.203.602.375.177.172.323.395.437.672.115.276.201.609.258 1 .063.385.094.833.094 1.343Z" clip-rule="evenodd"/>
    <path fill="#fff" d="M137.974 78.43v1.36h-3.172v3.6h-1.445v-3.6h-3.18v-1.36h3.18v-3.32h1.445v3.32h3.172ZM145.162 78.522v6.01h-1.445v-8.454h1.406l.028.97.011-.017c.213-.349.484-.62.812-.812.334-.198.73-.297 1.188-.297.104 0 .224.013.359.039.136.02.229.044.281.07l-.007 1.344a2.103 2.103 0 0 0-.344-.047 3.655 3.655 0 0 0-.359-.016 2.32 2.32 0 0 0-.883.157c-.255.104-.472.25-.649.437a2.075 2.075 0 0 0-.398.616Z"/>
    <path fill="#fff" fill-rule="evenodd" d="M152.49 84.688a4.162 4.162 0 0 1-1.602-.297 3.631 3.631 0 0 1-1.226-.852 3.776 3.776 0 0 1-.781-1.297 4.74 4.74 0 0 1-.274-1.64v-.329c0-.687.102-1.299.305-1.835.203-.542.479-1 .828-1.376a3.553 3.553 0 0 1 1.187-.851 3.415 3.415 0 0 1 1.375-.29c.605 0 1.125.105 1.563.313.443.209.805.5 1.086.875.281.37.49.808.625 1.313.135.5.203 1.047.203 1.64v.649h-5.717c.009.36.063.702.162 1.023a2.9 2.9 0 0 0 .493.922c.218.266.481.474.789.625.312.151.666.227 1.062.227.511 0 .943-.104 1.297-.313a3.22 3.22 0 0 0 .93-.836l.875.696c-.183.276-.414.539-.696.789-.281.25-.627.453-1.039.61-.406.155-.888.234-1.445.234Zm-2.266-5.766a4.16 4.16 0 0 0-.12.61h4.23v-.11a3.594 3.594 0 0 0-.235-1.094 1.961 1.961 0 0 0-.625-.875c-.286-.229-.677-.344-1.172-.344a1.967 1.967 0 0 0-1.617.82c-.198.272-.351.602-.461.993Z" clip-rule="evenodd"/>
    <path fill="#fff" d="m159.576 84.531-3.063-8.453h1.485l2.147 6.477 2.095-6.477h1.477l-3.04 8.453h-1.101ZM166.677 76.078v8.453h-1.453v-8.453h1.453ZM165.115 73.836a.87.87 0 0 1 .211-.594c.146-.161.359-.242.641-.242.276 0 .487.08.632.242.151.162.227.36.227.594a.818.818 0 0 1-.227.578c-.145.156-.356.234-.632.234-.282 0-.495-.078-.641-.234a.85.85 0 0 1-.211-.578Z"/>
    <path fill="#fff" fill-rule="evenodd" d="M170.904 84.39a4.158 4.158 0 0 0 1.602.297c.557 0 1.039-.078 1.445-.234a3.32 3.32 0 0 0 1.039-.61c.281-.25.513-.512.695-.788l-.875-.696a3.203 3.203 0 0 1-.929.836c-.355.209-.787.313-1.297.313-.396 0-.75-.076-1.063-.227a2.363 2.363 0 0 1-.789-.625 2.918 2.918 0 0 1-.492-.922 3.787 3.787 0 0 1-.163-1.023h5.718v-.648c0-.594-.068-1.141-.203-1.641a3.757 3.757 0 0 0-.625-1.313 2.86 2.86 0 0 0-1.086-.875c-.438-.208-.959-.312-1.563-.312-.474 0-.932.096-1.375.289a3.543 3.543 0 0 0-1.187.852 4.122 4.122 0 0 0-.829 1.374c-.203.537-.304 1.149-.304 1.836v.329c0 .593.091 1.14.273 1.64.183.5.443.932.781 1.297.344.365.753.648 1.227.852Zm-.784-4.859a4.16 4.16 0 0 1 .12-.61c.109-.39.263-.72.461-.991s.435-.474.711-.61c.276-.14.578-.21.906-.21.495 0 .886.114 1.172.343.286.23.495.521.625.875.135.354.214.719.234 1.094v.11h-4.229Z" clip-rule="evenodd"/>
    <path fill="#fff" d="M179.17 84.531h1.179l2.002-6.4 2.053 6.4h1.172l2.453-8.453h-1.437l-1.631 6.442-2.002-6.442h-1.164l-1.971 6.31-1.662-6.31h-1.445l2.453 8.453ZM194.295 81.71c.093.178.14.37.14.58 0 .233-.07.442-.211.624-.14.182-.346.326-.617.43-.265.104-.596.156-.992.156-.297 0-.596-.047-.898-.14a1.748 1.748 0 0 1-.766-.493c-.208-.234-.323-.55-.344-.945h-1.453c0 .469.133.914.398 1.336.266.422.657.765 1.172 1.031.516.266 1.146.398 1.891.398.495 0 .94-.06 1.336-.18a3.295 3.295 0 0 0 1.031-.515 2.248 2.248 0 0 0 .899-1.812c0-.453-.11-.839-.329-1.157-.218-.317-.552-.585-1-.804-.447-.219-1.018-.406-1.71-.563a9.127 9.127 0 0 1-.977-.265 2.455 2.455 0 0 1-.594-.282.943.943 0 0 1-.297-.336 1.164 1.164 0 0 1 .086-1.016 1.26 1.26 0 0 1 .539-.46c.25-.125.576-.188.977-.188.38 0 .7.073.961.22.265.145.466.33.601.554.141.219.211.445.211.68h1.446c0-.485-.128-.925-.383-1.32-.255-.402-.623-.722-1.102-.962-.479-.24-1.057-.36-1.734-.36-.474 0-.904.066-1.289.196a3.07 3.07 0 0 0-.992.54c-.271.228-.482.491-.633.788a2.114 2.114 0 0 0-.219.946c0 .349.07.653.211.914.141.26.341.487.602.68.265.192.586.356.961.492.38.135.804.252 1.273.351.557.11.974.24 1.25.39.281.147.466.31.555.493Z"/>
    <path fill="#FFDB00" d="M126.59 51.835a1.01 1.01 0 0 0-.292.89l.815 4.51a.992.992 0 0 1-.413.99c-.313.228-.73.256-1.072.072l-4.06-2.117a1.037 1.037 0 0 0-.459-.12h-.248a.747.747 0 0 0-.248.082l-4.06 2.128c-.201.1-.428.137-.651.1a1.019 1.019 0 0 1-.816-1.164l.816-4.51a1.025 1.025 0 0 0-.293-.898l-3.31-3.208a.988.988 0 0 1-.246-1.036 1.03 1.03 0 0 1 .815-.687l4.555-.661a1.02 1.02 0 0 0 .807-.559l2.008-4.115a.943.943 0 0 1 .183-.248l.082-.064a.635.635 0 0 1 .148-.12l.1-.036.156-.064h.386c.344.036.648.242.806.55l2.034 4.098c.147.3.432.507.761.558l4.556.66c.385.056.707.322.834.688.12.368.017.771-.266 1.036l-3.428 3.245ZM154.962 51.835c-.238.23-.347.563-.293.89l.815 4.51a.99.99 0 0 1-.412.99 1.01 1.01 0 0 1-1.073.072l-4.06-2.117a1.036 1.036 0 0 0-.458-.12h-.248a.74.74 0 0 0-.248.082l-4.061 2.128c-.201.1-.428.137-.651.1a1.019 1.019 0 0 1-.815-1.164l.815-4.51a1.027 1.027 0 0 0-.292-.898l-3.31-3.208a.99.99 0 0 1-.247-1.036 1.03 1.03 0 0 1 .815-.687l4.556-.661a1.02 1.02 0 0 0 .807-.559l2.007-4.115a.947.947 0 0 1 .184-.248l.082-.064a.615.615 0 0 1 .148-.12l.1-.036.155-.064h.386c.345.036.648.242.807.55l2.034 4.098c.147.3.432.507.761.558l4.556.66c.385.056.706.322.834.688.12.368.016.771-.266 1.036l-3.428 3.245ZM183.333 51.835a1.01 1.01 0 0 0-.292.89l.815 4.51a.99.99 0 0 1-.413.99c-.313.228-.73.256-1.072.072l-4.06-2.117a1.036 1.036 0 0 0-.458-.12h-.249a.741.741 0 0 0-.247.082l-4.061 2.128c-.201.1-.428.137-.651.1a1.019 1.019 0 0 1-.816-1.164l.816-4.51a1.027 1.027 0 0 0-.292-.898l-3.311-3.208a.99.99 0 0 1-.246-1.036 1.03 1.03 0 0 1 .815-.687l4.556-.661a1.02 1.02 0 0 0 .806-.559l2.008-4.115a.943.943 0 0 1 .183-.248l.083-.064a.61.61 0 0 1 .147-.12l.1-.036.156-.064h.386c.345.036.648.242.807.55l2.034 4.098c.146.3.431.507.76.558l4.556.66c.385.056.707.322.834.688a.994.994 0 0 1-.265 1.036l-3.429 3.245ZM211.707 51.835c-.238.23-.347.563-.293.89l.815 4.51a.99.99 0 0 1-.412.99 1.01 1.01 0 0 1-1.073.072l-4.06-2.117a1.032 1.032 0 0 0-.458-.12h-.248a.747.747 0 0 0-.248.082l-4.061 2.128c-.2.1-.428.137-.65.1a1.019 1.019 0 0 1-.816-1.164l.816-4.51a1.025 1.025 0 0 0-.293-.898l-3.31-3.208a.99.99 0 0 1-.247-1.036 1.03 1.03 0 0 1 .815-.687l4.556-.661a1.02 1.02 0 0 0 .807-.559l2.007-4.115a.947.947 0 0 1 .184-.248l.082-.064a.615.615 0 0 1 .148-.12l.1-.036.156-.064h.385c.345.036.649.242.807.55l2.034 4.098c.147.3.432.507.761.558l4.556.66c.385.056.707.322.834.688.12.368.017.771-.266 1.036l-3.428 3.245ZM240.078 51.835a1.01 1.01 0 0 0-.292.89l.815 4.51a.99.99 0 0 1-.413.99c-.313.229-.73.256-1.072.073l-4.06-2.118a1.036 1.036 0 0 0-.458-.12h-.249a.741.741 0 0 0-.247.083l-4.061 2.127c-.201.101-.428.137-.651.101a1.019 1.019 0 0 1-.816-1.165l.816-4.51a1.027 1.027 0 0 0-.292-.897l-3.311-3.209a.99.99 0 0 1-.246-1.036 1.03 1.03 0 0 1 .815-.687l4.556-.661a1.02 1.02 0 0 0 .806-.558l2.008-4.116a.943.943 0 0 1 .183-.248l.083-.064a.612.612 0 0 1 .147-.119l.1-.037.156-.064h.386c.345.036.648.242.807.55l2.034 4.098c.146.3.431.508.76.558l4.556.66c.385.056.707.322.834.688a.994.994 0 0 1-.265 1.036l-3.429 3.245Z"/>
    <path fill="#EBEBEB" d="M236.954 57.17V44.302l.668 1.346c.146.3.431.508.76.558l4.556.66c.385.056.707.322.834.688a.994.994 0 0 1-.265 1.036l-3.429 3.245a1.01 1.01 0 0 0-.292.89l.815 4.51a.99.99 0 0 1-.413.99c-.313.229-.73.256-1.072.073l-2.162-1.128Z"/>
</svg>
