<svg fill="none" xmlns="http://www.w3.org/2000/svg" viewBox="0 0 100 50"><path d="M16.553 42.775c-.024.057-.044.117-.067.177a4.008 4.008 0 0 0-.21 1.432 2.072 2.072 0 0 1-.431-.334 1.388 1.388 0 0 1-.167-.204l-.027-.046a.901.901 0 0 1-.13-.407.236.236 0 0 1 .07-.197c.132-.126.29-.22.464-.274.162-.063.328-.112.498-.147Z" fill="#E0E0E0"/><path d="M24.096 44.587a.607.607 0 0 0-.05.137.728.728 0 0 1-.097.23 4.817 4.817 0 0 1-.314.438c-.06.077-.12.15-.17.224a9.402 9.402 0 0 1-2.774 2.52 2.672 2.672 0 0 1-1.002.404 3.096 3.096 0 0 1-1.001-.114 6.9 6.9 0 0 0-.668-.123 3.616 3.616 0 0 1-1.335-.334 8.677 8.677 0 0 1-2.233-1.91c-.08-.086-.287-.333-.284-.457a.375.375 0 0 1 .164-.237 4.13 4.13 0 0 1 .81-.424l.09-.033c.239.21.503.387.785.53.144.07.244.11.26.118.06.022.124.034.188.033h.023a6.283 6.283 0 0 0 1.092 2.003.53.53 0 0 0 .834-.651c-1.986-2.54-.668-4.263-.554-4.393a.446.446 0 0 0 .037-.047l.02-.033.023-.04a.192.192 0 0 0 0-.047.233.233 0 0 0 .017-.043v-.044a.243.243 0 0 0 0-.046.579.579 0 0 0 0-.077v-.14a.507.507 0 0 0-.13-.197l-.034-.03c-.033-.057-.157-.334-.097-1.095.027-.31.384-.591.855-.812.48-.218.988-.37 1.509-.45h.037a19.857 19.857 0 0 0 3.999 5.14Z" fill="#E0E0E0"/><path d="M54.765 16.09c-9.09-3.672-17.792-3.372-23.56-2.45a46.156 46.156 0 0 0-9.974 2.72 18.2 18.2 0 0 1 .71-4.406c.621-2.23 1.51-4.78 3.399-6.81 2.203-2.367 5.728-3.839 9.68-4.042a33.21 33.21 0 0 1 1.73-.047h.42c3.886.05 7.037.644 9.627 1.82a13.89 13.89 0 0 1 3.956 2.67c1.288 1.248 1.776 2.573 2.39 4.25l.117.313c.704 1.956 1.375 4.002 1.505 5.982Z" fill="#ADADAD"/><path d="M54.762 17.235c-.137 1.709-.414 3.338-1.355 4.006-.531.37-1.255.42-2.22.156a11.68 11.68 0 0 1-2.096-.894l-.544-.274c-7.218-3.535-16.167-3.091-22.793 1.128l-.117.074c-.564.36-1.095.7-1.67.717h-.04c-1.05 0-1.835-1.165-2.19-2.176a9.572 9.572 0 0 1-.506-2.47 44.603 44.603 0 0 1 10.16-2.82c5.726-.909 14.382-1.193 23.371 2.553Z" fill="#ADADAD"/><path fill-rule="evenodd" clip-rule="evenodd" d="M54.023 22.105c.118-.086.23-.18.334-.284l.01-.003a18.737 18.737 0 1 1-33.281-.744c.58 1.131 1.549 2.133 2.86 2.133h.077c.848-.023 1.546-.47 2.17-.87l.023-.015.117-.07c6.323-4.026 14.862-4.446 21.755-1.072a26 26 0 0 1 .533.267c.731.4 1.5.725 2.294.972 1.272.354 2.317.244 3.108-.314Zm-10.49 6.857a5.942 5.942 0 1 1-11.885 0 5.942 5.942 0 0 1 11.884 0Z" fill="#FAFAFA"/><path fill-rule="evenodd" clip-rule="evenodd" d="M45.519 34.245a9.517 9.517 0 1 0-15.831-10.567 9.517 9.517 0 0 0 15.83 10.567Zm-1.987-5.283a5.942 5.942 0 1 1-11.884 0 5.942 5.942 0 0 1 11.884 0Z" fill="#D2D2D2"/><path d="M40.648 27.483a3.425 3.425 0 1 0 0-6.85 3.425 3.425 0 0 0 0 6.85Z" fill="#FAFAFA"/><path d="M66.536 37.881a.53.53 0 0 1-.53.52 2.753 2.753 0 0 1-.988-.21 3.779 3.779 0 0 1-1.286-.934 4.428 4.428 0 0 1-.567-.748.53.53 0 0 1 .918-.53 3.3 3.3 0 0 0 1.258 1.198c.162.078.336.13.514.153h.164a.53.53 0 0 1 .517.551ZM75.33 7.981a8.203 8.203 0 1 0 10.246 5.442A8.212 8.212 0 0 0 75.33 7.98Zm4.534 14.808a7.283 7.283 0 1 1 4.834-9.1 7.294 7.294 0 0 1-4.834 9.1Z" fill="#8C8C8C"/><path d="M70.703 33.428c-.12 0-.24 0-.364-.027v-.213l-.11.2-.538 1.002-.477.874-.36.668-.134.247-.12.223-.508.932-.53.968-1.336 2.443a1.59 1.59 0 0 1-2.804-1.502l.785-1.492.507-.958L65.82 34.7l.611-1.165a4.464 4.464 0 0 1-.2-1.085.5.5 0 0 0-.114-.287l-.764 1.455-1.242 2.354-.033.063-.551 1.042-.29.55-.618 1.142a2.517 2.517 0 0 0 1.981 3.668c.328.03.659-.004.973-.103a2.5 2.5 0 0 0 1.472-1.195l1.042-1.916.564-1.035a.743.743 0 0 1-.053-.187c-.064-.373.183-.717.667-.958l.06-.113.498-.911v-.024a1.054 1.054 0 0 1-.391-.29c.257-.157.458-.39.574-.668.088-.193.154-.396.197-.604h.137l.334.023.577-1.061c-.181.02-.364.032-.547.033ZM87.23 12.925a9.94 9.94 0 1 0-15.723 10.662l-.774 1.419.617.334-.257.424-.524-.234-1.051 1.89a.905.905 0 0 0-1.129.413l-.223.428-.568 1.075a.85.85 0 0 1 .394-.03c.07 0 .26.043.46.373l.535-1.001.204-.387 3.004 1.495-.117.214-.62 1.142a3.94 3.94 0 0 1 1.088-.074l.47-.865c.018-.035.033-.072.047-.11a.884.884 0 0 0-.334-1.055l1.048-1.745-.42-.227-.24-.13.303-.508.598.314.724-1.432A9.938 9.938 0 0 0 87.23 12.919v.006Zm-15.319 15.69-1.572-.782c.094-.166.204-.363.31-.56.107-.197.204-.374.278-.518.333.2.817.478 1.568.885l-.584.974Zm-.043-2.377.294-.484.447.237-.31.494-.431-.247Zm1.752-.748-1.635-.871.27-.494c.513.335 1.055.623 1.62.861l-.255.504Zm6.743-1.038a9.012 9.012 0 1 1 5.328-4.394 9.012 9.012 0 0 1-5.328 4.39v.004Z" fill="#8C8C8C"/><path d="m73.878 24.983-.257.5-1.633-.868.27-.494c.513.336 1.055.624 1.62.862Z" fill="#E0E0E0"/><path d="m72.185 29.78-.117.213-.62 1.142-.231.046a8.555 8.555 0 0 0-1.058.3c.112.556.171 1.12.177 1.687l-.11.2-.538 1.001-.477.875-.36.668-.134.247-.12.223-.508.932-.53.968-1.336 2.443a1.59 1.59 0 1 1-2.804-1.502l.785-1.492.507-.958 1.105-2.093.61-1.165c0 .036.024.07.037.1.084.232.205.448.358.64.102.13.224.242.36.335a2.146 2.146 0 0 0 1.733.213c.283-.153.577-1.605.116-3.471l-.02-.074a6.728 6.728 0 0 0-.214-.718 10.707 10.707 0 0 0-.213-.564 3.58 3.58 0 0 0-.093-.193.619.619 0 0 0-.05-.084l.534-1.001.203-.387 3.008 1.468Z" fill="#ADADAD"/><path d="m72.5 27.64-.587.971-1.57-.78.311-.562c.11-.2.204-.374.277-.517.327.2.818.477 1.57.888Z" fill="#E0E0E0"/><path d="M75.086 7.197a9.013 9.013 0 1 0 11.266 5.985 9.036 9.036 0 0 0-11.266-5.985Zm5.044 16.47a8.202 8.202 0 1 1 5.441-10.244 8.212 8.212 0 0 1-5.441 10.244Z" fill="#D2D2D2"/><path d="M77.725 23.107a7.284 7.284 0 1 0 0-14.568 7.284 7.284 0 0 0 0 14.568Z" fill="#FAFAFA"/><path d="M68.008 29.305c.059.014.25.047.434.384l.05.084.09.194c.079.19.153.377.215.564l.13.4.058.214.027.103.02.074c.469 1.866.175 3.318-.106 3.471a2.16 2.16 0 0 1-1.734-.213 1.59 1.59 0 0 1-.36-.334 2.352 2.352 0 0 1-.359-.641l-.016-.06-.003-.047-.004-.014a4.735 4.735 0 0 1-.196-1.07.514.514 0 0 0-.113-.288l-.09-.071a.524.524 0 0 0-.383-.129.523.523 0 0 0-.359.183.516.516 0 0 0-.129.384c.024.37.086.735.18 1.092l-1.242 2.353a1.292 1.292 0 0 1-.032-.585c.032-.195.11-.38.223-.543.523-.567.39-1.252.281-1.803-.105-.55-.16-.938.156-1.275l.227-.243c.555-.601 1.75-1.896 2.621-2.15a.91.91 0 0 1 .414-.034ZM71.262 33.415v.013c-.184.01-.371.01-.555 0-.121 0-.238 0-.363-.026v-.214l.004-.014a8.858 8.858 0 0 0-.176-1.685 8.585 8.585 0 0 1 1.059-.3l.222-.04a3.876 3.876 0 0 1 1.09-.088l.094.004a.721.721 0 0 1 .535.33c.039.078.07.16.094.245a1.205 1.205 0 0 1-.203 1.05l-.09.106a1.23 1.23 0 0 1-.215.185l-.035.026a2.877 2.877 0 0 1-1.461.408ZM73.012 36.215c.27-.111.504-.29.687-.517a.78.78 0 0 0 .2-.34.794.794 0 0 0 .015-.394 1.844 1.844 0 0 0-.848-.938 4.296 4.296 0 0 1-2.062.45h-.328l-.313-.03h-.136c-.043.208-.11.411-.196.605a1.428 1.428 0 0 1-.574.667c.106.126.238.225.383.29.16.075.324.133.492.174a7.63 7.63 0 0 0 2.004.174c.219-.007.433-.048.637-.124l.039-.017ZM72.595 38.706c-.254.367-.751.56-1.476.574a3.608 3.608 0 0 1-1.705-.334 1.9 1.9 0 0 1-.458-.314 1.24 1.24 0 0 1-.307-.42.747.747 0 0 1-.053-.187c-.064-.374.183-.718.667-.958.05-.025.1-.047.15-.067l.07.03c.166.068.335.126.508.173a7.929 7.929 0 0 0 2.023.224h.334c.145-.002.29-.017.434-.043.099.449.032.918-.187 1.322Z" fill="#E0E0E0"/><path fill-rule="evenodd" clip-rule="evenodd" d="M54.235 9.727c.852 2.314 1.641 4.784 1.59 7.177v.174c-.098 1.36-.273 2.712-.777 3.745l.004.01a19.82 19.82 0 0 1 2.265 9.227 19.685 19.685 0 0 1-1.437 7.414c.77.122 1.547.187 2.32.187a9.69 9.69 0 0 0 4.676-1.072.454.454 0 0 0 .18-.198.416.416 0 0 0 .03-.266c-.151-.848 0-1.555.458-2.043.082-.085.11-.196.102-.362l-.024-.198-.055-.318c-.12-.617-.28-1.458.418-2.203l.223-.237c1.23-1.335 2.652-2.73 3.969-2.507.265.048.511.163.718.334l.09.08c.153.142.282.305.387.484l.102.194.097.203.18.465.152.437.008.023.45-.148c.23-.07.464-.132.699-.186a5.77 5.77 0 0 1 1.027-.137c.328-.017.66.015.984.094.235.055.453.164.64.317a1.601 1.601 0 0 1 .434.568c.176.374.247.79.208 1.201a2.276 2.276 0 0 1-.438 1.139 2.5 2.5 0 0 1 1.043 1.392 1.859 1.859 0 0 1-.426 1.632c-.199.253-.441.468-.71.638.1.574.187 1.552-.344 2.32-.461.667-1.247 1.001-2.34 1.031h-.114a4.603 4.603 0 0 1-1.949-.394 3.692 3.692 0 0 1-.472-.267 2.844 2.844 0 0 1-.52-.44 2.14 2.14 0 0 1-.52-.969v-.076a1.885 1.885 0 0 1 .407-1.464c.152-.192.347-.352.566-.473a2.122 2.122 0 0 1-.16-.313 2.962 2.962 0 0 1-1.777-.491l-.118-.087-.066-.051-.195-.174-.172-.185a2.97 2.97 0 0 1-.215-.29 3.648 3.648 0 0 1-.469-1.082l-.082-.343a6.868 6.868 0 0 1-.097-.749.55.55 0 0 1 .129-.384.54.54 0 0 1 .363-.184.516.516 0 0 1 .25.046l.101.059a.56.56 0 0 1 .102.1l.05.076a.497.497 0 0 1 .063.21c.024.369.09.733.2 1.085 0 .03.015.058.027.083l.011.017.063.158c.043.1.094.197.152.29l.14.193c.103.13.224.242.36.334a2.158 2.158 0 0 0 1.735.214c.28-.151.566-1.561.136-3.386l-.015-.036v-.037l-.004-.013-.016-.06-.004-.013.004-.084-.031-.02-.074-.265a4.217 4.217 0 0 0-.114-.35l-.039-.114-.175-.45-.094-.193-.047-.083c-.203-.334-.39-.364-.46-.374a.852.852 0 0 0-.395.03c-.86.25-2.036 1.515-2.602 2.125l-.023.025-.227.243c-.313.334-.266.688-.152 1.275.05.267.105.545.101.823-.008.335-.101.67-.386.98a1.37 1.37 0 0 0-.223.543c-.031.195-.02.395.031.585l.02.137c.02.214-.008.43-.082.633a1.492 1.492 0 0 1-.668.806l-.137.073A10.752 10.752 0 0 1 58.2 38.73a14.309 14.309 0 0 1-2.754-.264l-.004.01a19.78 19.78 0 0 1-30.378 6.95l-.122-.093a2.733 2.733 0 0 1-.187.334 5.77 5.77 0 0 1-.29.394l-.151.197a10.293 10.293 0 0 1-1.754 1.868c-.418.347-.864.66-1.332.939-.434.284-.926.47-1.438.547h-.277c-.36-.01-.715-.06-1.059-.146a5.816 5.816 0 0 0-.582-.107 4.465 4.465 0 0 1-1.691-.441 9.599 9.599 0 0 1-2.524-2.13 1.718 1.718 0 0 1-.558-1.215c.015-.204.074-.402.171-.58.102-.18.239-.334.403-.455a5.44 5.44 0 0 1 .914-.507l.059-.027-.04-.105-.05-.182a1.729 1.729 0 0 1-.04-.284v-.118a.884.884 0 0 1 .005-.144l.015-.098.047-.16c.059-.166.148-.32.266-.45.402-.387.91-.641 1.457-.732l.347-.063a4.226 4.226 0 0 1-.039-.496c-.008-.188 0-.376.016-.563.027-.309.144-.603.336-.847l.156-.171.164-.156-4.125-3.946a.556.556 0 0 1-.16-.348.572.572 0 0 1 .023-.2c.02-.06.051-.116.09-.167l4.645-5.817.011-.168a19.737 19.737 0 0 1 2.81-8.973l-.005-.01c-.668-2.29-.547-4.96.336-8.135.613-2.213 1.582-5.037 3.64-7.247C26.975 1.819 30.67.267 34.947.043 35.685 0 36.431 0 37.165 0c1.852.01 3.695.182 5.516.514 1.562.285 3.086.754 4.535 1.399 1.574.7 3.011 1.666 4.254 2.857 1.465 1.419 2.015 2.914 2.652 4.647l.113.31Zm15.2 27.26-.149.066c-.492.24-.742.585-.668.958l.031.12.024.067c.07.16.176.304.305.42.136.127.293.233.46.315a3.597 3.597 0 0 0 1.704.334c.726 0 1.222-.207 1.476-.575.227-.402.278-.87.184-1.322l-.266.035-.168.009h-.332a7.975 7.975 0 0 1-2.023-.224 4.267 4.267 0 0 1-.508-.173l-.07-.03Zm3.656-.812a.418.418 0 0 0-.059.017l-.015.017a2.088 2.088 0 0 1-.371.108c-.098.018-.2.029-.301.032a7.6 7.6 0 0 1-2.004-.174c-.172-.04-.336-.099-.496-.173a1.182 1.182 0 0 1-.328-.217l-.07-.074c.07-.042.136-.091.198-.145a1.31 1.31 0 0 0 .169-.174c.085-.105.156-.222.207-.348.09-.19.148-.388.19-.591h.138l.336.023h.328a4.35 4.35 0 0 0 1.105-.106c.332-.076.653-.191.957-.344.39.204.688.535.852.938.027.13.02.264-.02.392l-.058.14a.82.82 0 0 1-.145.195 1.724 1.724 0 0 1-.613.484Zm-.035-3.485c-.086.113-.188.21-.305.29l-.016.02a2.94 2.94 0 0 1-1.48.415c-.184.01-.371.01-.555 0l-.164-.013-.195-.014v-.214a8.793 8.793 0 0 0-.172-1.692c.324-.113.68-.213 1.039-.29l.23-.047c.356-.075.723-.1 1.086-.074a.725.725 0 0 1 .63.334c.105.202.152.43.136.657-.02.227-.098.445-.234.628ZM21.07 21.077a18.716 18.716 0 0 0-2.277 9.198A18.73 18.73 0 0 0 37.11 48.773a18.724 18.724 0 0 0 16.2-8.633 18.72 18.72 0 0 0 2.925-9.027 18.584 18.584 0 0 0-1.886-9.298l-.196.177-.14.107c-.79.557-1.836.647-3.106.313a12.45 12.45 0 0 1-2.297-.961l-.535-.267c-6.894-3.375-15.433-2.954-21.754 1.071l-.117.07-.012.009c-.628.401-1.336.853-2.18.876h-.077c-1.313 0-2.282-.998-2.864-2.133Zm30.117.317c.961.264 1.688.214 2.22-.157.94-.664 1.202-2.293 1.343-3.992l.023-.01c-8.988-3.746-17.644-3.462-23.367-2.554a44.545 44.545 0 0 0-10.16 2.82c.043.84.215 1.67.492 2.468.352 1.011 1.137 2.176 2.188 2.176h.039c.574-.017 1.105-.357 1.672-.718l.117-.073c6.625-4.22 15.574-4.663 22.793-1.128l.543.274c.668.365 1.37.665 2.097.894ZM21.2 16.357c.055-1.492.293-2.972.711-4.406.621-2.23 1.508-4.78 3.399-6.81 2.203-2.367 5.726-3.84 9.68-4.043l.667-.028.621-.015.442-.003h.422c3.882.05 7.035.644 9.625 1.819a13.89 13.89 0 0 1 3.957 2.67C52 6.776 52.48 8.086 53.09 9.737l.011.031.012.023.114.314c.718 1.942 1.406 3.992 1.539 5.985-9.09-3.669-17.793-3.372-23.559-2.45A46.772 46.772 0 0 0 21.2 16.357ZM20.087 39.46a20.001 20.001 0 0 0 4.004 5.12l-.008.02a.567.567 0 0 0-.047.138.81.81 0 0 1-.098.23 4.985 4.985 0 0 1-.316.437l-.168.224a9.36 9.36 0 0 1-2.773 2.52 2.686 2.686 0 0 1-1.004.404 3.09 3.09 0 0 1-1-.113l-.293-.063-.375-.06a3.637 3.637 0 0 1-1.336-.335 8.637 8.637 0 0 1-2.23-1.91c-.083-.086-.286-.316-.286-.456a.418.418 0 0 1 .059-.135l.039-.05.023-.02.043-.032c.254-.171.524-.313.809-.424l.094-.034.058-.016a3.598 3.598 0 0 0 1.043.648.502.502 0 0 0 .145.031l.008.018c.238.729.609 1.408 1.09 2.003a.525.525 0 0 0 .136.106.47.47 0 0 0 .129.052l.082.013a.53.53 0 0 0 .488-.822c-1.984-2.54-.668-4.263-.554-4.393l.039-.046.043-.074v-.047l.015-.043v-.307a.502.502 0 0 0-.129-.197l-.035-.03c-.031-.057-.156-.334-.097-1.095.027-.31.386-.59.855-.811l.332-.139.223-.08.289-.089c.218-.06.441-.108.664-.143h.039Zm-2.348-8.774a19.956 19.956 0 0 0 1.848 7.763 6.4 6.4 0 0 0-1.36.428l-3.98-3.813 3.492-4.378ZM16.27 44.331v-.248c.016-.385.086-.766.211-1.131l.067-.177a3.226 3.226 0 0 0-.442.13c-.093.03-.187.072-.27.124l-.12.086-.07.064-.032.035-.027.055a.247.247 0 0 0-.012.107.825.825 0 0 0 .035.195c.024.074.055.146.094.212l.027.047c.047.073.106.14.168.203.11.114.239.214.371.298Z" fill="#8C8C8C"/></svg>